<?xml version="1.0" encoding="utf-8"?>
<!-- Generator: Adobe Illustrator 23.0.2, SVG Export Plug-In . SVG Version: 6.00 Build 0)  -->
<svg version="1.1" xmlns="http://www.w3.org/2000/svg" xmlns:xlink="http://www.w3.org/1999/xlink" x="0px" y="0px"
	 viewBox="0 0 480 280" style="enable-background:new 0 0 480 280;" xml:space="preserve">
<style type="text/css">
	.st0{fill:#CCCCCC;stroke:#999999;stroke-miterlimit:10;}
	.st1{fill:#CC6600;}
	.st2{fill:#666666;}
</style>
<g id="Layer_1">
	<rect x="0.5" y="0.5" class="st0" width="479" height="279"/>
</g>
<g id="Layer_2">
	<g>
		<g>
			<path d="M20.66,15.45c21.5,3.57,43.31,4.13,65.06,3.88c10.99-0.13,21.98-0.45,32.97-0.67c3.01-0.06,5.74-0.9,7.48,1.69
				c1.32,1.96,1.7,4.93,2.12,7.23c0.82,4.44,1.19,9,1.55,13.5c1.44,18.31,1.32,36.72,1.48,55.06c0.04,4.13,0.08,8.26,0.16,12.39
				c0.03,1.79,0.07,3.58,0.12,5.38c0.1,3.52-0.74,2.9-4.17,3.01c-11.79,0.39-23.56,0.76-35.36,0.76c-24.34,0-48.63,1.98-72.95,2.84
				c0.48,0.63,0.96,1.27,1.45,1.9c3.67-14.67,2.23-30.9,1.44-45.85c-0.55-10.24-1.02-20.48-1.03-30.74c0-5.03,0.1-10.06,0.32-15.08
				c0.23-5.27-0.04-11.23,1.21-16.36c0.46-1.88-2.43-2.68-2.89-0.8C17.49,22.28,18.1,32.53,18,41.43
				c-0.13,10.89,0.27,21.77,0.86,32.63c0.84,15.46,2.6,32.38-1.19,47.56c-0.23,0.91,0.45,1.93,1.45,1.9
				c16.72-0.59,33.41-1.66,50.12-2.33c16.74-0.67,33.48-0.39,50.22-0.99c3.9-0.14,8.5,0.34,12.33-0.44c1.39-0.28,2.15-0.6,2.72-1.95
				c0.73-1.74,0.06-4.69,0.02-6.54c-0.08-3.29-0.12-6.59-0.16-9.88c-0.16-14.14-0.15-28.28-0.6-42.41
				c-0.25-7.56-0.6-15.13-1.36-22.66c-0.69-6.91-1.39-13.96-5-20.05c-0.27-0.45-0.77-0.75-1.3-0.74
				c-34.87,0.55-70.07,2.77-104.66-2.97C19.57,12.24,18.76,15.13,20.66,15.45z"/>
		</g>
	</g>
	<g>
		<g>
			<path d="M27.31,26.51c-0.03,12.56,1.32,24.99,3.99,37.26c0.15,0.68,0.81,1.05,1.45,1.1c15.5,1.23,31.08,1.61,46.44,4.18
				c0.96,0.16,1.88-0.39,1.9-1.45c0.13-8.77,0.28-17.54,0.42-26.31c0.08-4.95,2.55-14.18-3.11-16.77c-6.29-2.88-15.9-2.55-22.61-2.6
				c-8.68-0.06-17.36,0.47-26.03,0.84c-0.74,0.03-1.18,0.46-1.45,1.1c-0.31,0.75-0.62,1.5-0.94,2.25c-0.74,1.78,2.16,2.56,2.89,0.8
				c0.31-0.75,0.62-1.5,0.94-2.25c-0.48,0.37-0.96,0.73-1.45,1.1c14.23-0.61,28.82-1.99,42.94,0.52c2.54,0.45,4.85,0.46,6,3.52
				c0.47,1.26-0.05,3.55-0.07,4.87c-0.05,3.45-0.11,6.89-0.16,10.34c-0.12,7.53-0.24,15.06-0.36,22.6c0.63-0.48,1.27-0.96,1.9-1.45
				c-15.63-2.61-31.47-3.03-47.24-4.28c0.48,0.37,0.96,0.73,1.45,1.1c-2.62-12.01-3.91-24.17-3.88-36.46
				C30.31,24.58,27.31,24.58,27.31,26.51z"/>
		</g>
	</g>
	<g>
		<g>
			<path d="M95.06,33.67c5.71,0.35,11.43,0.51,17.15,0.85c1.93,0.11,1.92-2.89,0-3c-5.71-0.34-11.44-0.49-17.15-0.85
				C93.13,30.55,93.14,33.55,95.06,33.67L95.06,33.67z"/>
		</g>
	</g>
	<g>
		<g>
			<path d="M94.51,41.52c3.32-0.05,6.64-0.1,9.95-0.15c2.14-0.03,5.11-0.63,7.19,0.07c1.84,0.61,2.62-2.28,0.8-2.89
				c-2.02-0.68-4.74-0.22-6.8-0.19c-3.71,0.06-7.43,0.11-11.14,0.17C92.58,38.55,92.57,41.55,94.51,41.52L94.51,41.52z"/>
		</g>
	</g>
	<g>
		<g>
			<path d="M94.46,48.39c6.24,0.08,12.52-0.21,18.72,0.61c1.91,0.25,1.89-2.75,0-3c-6.2-0.82-12.48-0.54-18.72-0.61
				C92.52,45.37,92.52,48.37,94.46,48.39L94.46,48.39z"/>
		</g>
	</g>
	<g>
		<g>
			<path d="M94.5,55.67c5.3,0.28,10.6,0.51,15.9,0.79c1.93,0.1,1.92-2.9,0-3c-5.3-0.28-10.6-0.51-15.9-0.79
				C92.57,52.57,92.58,55.57,94.5,55.67L94.5,55.67z"/>
		</g>
	</g>
	<g>
		<g>
			<path d="M93.74,63.96c3.39,0.37,6.8,0.54,10.2,0.78c2.67,0.19,5.41,0.83,8.04,0.14c1.87-0.49,1.07-3.39-0.8-2.89
				c-2.64,0.7-5.94-0.16-8.6-0.33c-2.95-0.19-5.9-0.37-8.84-0.69C91.82,60.75,91.83,63.75,93.74,63.96L93.74,63.96z"/>
		</g>
	</g>
	<g>
		<g>
			<path d="M34.58,78.35c22.39,2.79,44.93,3.69,67.47,2.7c1.92-0.08,1.93-3.09,0-3c-22.54,0.99-45.08,0.09-67.47-2.7
				C32.67,75.11,32.68,78.11,34.58,78.35L34.58,78.35z"/>
		</g>
	</g>
	<g>
		<g>
			<path d="M34.32,90.86c27.09,2.14,54.26,2.51,81.4,1.1c1.92-0.1,1.93-3.1,0-3c-27.14,1.4-54.31,1.04-81.4-1.1
				C32.39,87.71,32.4,90.71,34.32,90.86L34.32,90.86z"/>
		</g>
	</g>
	<g>
		<g>
			<path d="M33.25,99.24c27.28,3.62,54.8,3.85,82.26,2.87c1.92-0.07,1.93-3.07,0-3c-27.46,0.98-54.98,0.75-82.26-2.87
				C31.34,95.98,31.36,98.99,33.25,99.24L33.25,99.24z"/>
		</g>
	</g>
	<g>
		<g>
			<path d="M117.25,110.42c-27.35-3.03-54.87-2.67-82.3-1.1c-1.92,0.11-1.93,3.11,0,3c27.43-1.57,54.95-1.93,82.3,1.1
				C119.16,113.63,119.15,110.63,117.25,110.42L117.25,110.42z"/>
		</g>
	</g>
	<g>
		<g>
			<path d="M19.57,140.26c0.59,8.15-1.73,16.28-2.63,24.35c-0.91,8.22-1.29,16.49-1.4,24.76c-0.25,17.2,0.66,34.39,0.94,51.58
				c0.01,0.74,0.68,1.59,1.5,1.5c5.1-0.59,10.29,0.31,15.4,0.51c6.22,0.24,12.44,0.43,18.66,0.6c10.56,0.28,21.13,0.47,31.69,0.69
				c9.56,0.2,19.12,0.44,28.67,0.87c3.64,0.16,8.58,1.35,12.12,0.58c4.17-0.91,3.44-7.19,3.93-10.55
				c3.46-23.77,6.11-47.71,6.22-71.75c0.04-8.26,0.96-21.2-4.82-28.04c-2.46-2.91-5.8-3.15-9.39-3.04
				c-6.57,0.2-13.15,0.77-19.72,1.15c-26.7,1.56-53.91-1.13-80.15,5.19c-1.88,0.45-1.08,3.35,0.8,2.89
				c21.32-5.13,43.14-3.98,64.87-4.45c11.08-0.24,22.14-1.14,33.21-1.72c4.17-0.22,7.09-0.09,9.34,4.27c1.1,2.12,1.57,4.76,1.97,7.1
				c0.95,5.48,0.92,11.11,0.89,16.66c-0.11,22.14-2.34,44.2-5.42,66.11c-0.36,2.59-0.74,5.18-1.12,7.77
				c-0.44,2.94,0.19,5.17-3.21,5.35c-4.07,0.22-8.39-0.46-12.47-0.63c-8.57-0.35-17.15-0.56-25.73-0.74
				c-10.56-0.22-21.13-0.41-31.69-0.69c-5.57-0.15-11.15-0.32-16.72-0.53c-5.71-0.21-11.65-1.24-17.34-0.58c0.5,0.5,1,1,1.5,1.5
				c-0.28-17.19-1.18-34.38-0.94-51.58c0.12-8.26,0.48-16.54,1.4-24.76c0.9-8.06,3.21-16.19,2.63-24.35
				C22.43,138.35,19.43,138.33,19.57,140.26L19.57,140.26z"/>
		</g>
	</g>
	<g>
		<g>
			<path d="M29.2,152.06c18.25,0.65,36.49,1.56,54.61-1.26c1.9-0.3,1.09-3.19-0.8-2.89c-17.84,2.77-35.86,1.79-53.81,1.15
				C27.27,148.99,27.27,151.99,29.2,152.06L29.2,152.06z"/>
		</g>
	</g>
	<g>
		<g>
			<path d="M28.99,159.69c11.68,0.09,23.36,0.19,35.05,0.28c1.93,0.02,1.93-2.98,0-3c-11.68-0.09-23.36-0.19-35.05-0.28
				C27.06,156.67,27.06,159.67,28.99,159.69L28.99,159.69z"/>
		</g>
	</g>
	<g>
		<g>
			<path d="M29.01,168.02c8.89,0.56,17.68,0.3,26.49-0.95c1.9-0.27,1.09-3.16-0.8-2.89c-8.54,1.21-17.1,1.38-25.7,0.84
				C27.08,164.9,27.09,167.9,29.01,168.02L29.01,168.02z"/>
		</g>
	</g>
	<g>
		<g>
			<path d="M71.36,158.26c2.35,0.39,4.58,0.02,6.93-0.19c1.91-0.17,1.93-3.17,0-3c-2.02,0.18-4.1,0.63-6.13,0.3
				C70.27,155.06,69.46,157.95,71.36,158.26L71.36,158.26z"/>
		</g>
	</g>
	<g>
		<g>
			<path d="M103.94,151.21c5.36,0.52,10.77,0.18,16.12,0.91c1.89,0.26,2.7-2.63,0.8-2.89c-5.62-0.77-11.28-0.46-16.91-1.01
				C102.02,148.02,102.03,151.02,103.94,151.21L103.94,151.21z"/>
		</g>
	</g>
	<g>
		<g>
			<path d="M101.85,227.57c5.36,0.52,10.77,0.18,16.12,0.91c1.89,0.26,2.7-2.63,0.8-2.89c-5.62-0.77-11.28-0.46-16.91-1.01
				C99.93,224.38,99.94,227.38,101.85,227.57L101.85,227.57z"/>
		</g>
	</g>
	<g>
		<g>
			<path d="M101.19,214.68c5.82,0.66,11.65,0.71,17.49,0.63c1.93-0.03,1.93-3.03,0-3c-5.85,0.08-11.68,0.03-17.49-0.63
				C99.27,211.46,99.29,214.46,101.19,214.68L101.19,214.68z"/>
		</g>
	</g>
	<g>
		<g>
			<path d="M103.8,156.94c5.82,0.66,11.65,0.71,17.49,0.63c1.93-0.03,1.93-3.03,0-3c-5.85,0.08-11.68,0.03-17.49-0.63
				C101.88,153.73,101.9,156.73,103.8,156.94L103.8,156.94z"/>
		</g>
	</g>
	<g>
		<g>
			<path d="M104.42,163.9c4.58,0.49,9.17,0.05,13.77,0.23c1.93,0.08,1.93-2.92,0-3c-4.59-0.18-9.18,0.26-13.77-0.23
				C102.51,160.7,102.52,163.7,104.42,163.9L104.42,163.9z"/>
		</g>
	</g>
	<g>
		<g>
			<path d="M103.93,170.26c4.25,0.2,8.48,0.1,12.72-0.29c1.91-0.18,1.92-3.18,0-3c-4.24,0.39-8.47,0.49-12.72,0.29
				C102,167.17,102.01,170.17,103.93,170.26L103.93,170.26z"/>
		</g>
	</g>
	<g>
		<g>
			<path d="M102.36,221.16c4.25,0.2,8.48,0.1,12.72-0.29c1.91-0.18,1.92-3.18,0-3c-4.24,0.39-8.47,0.49-12.72,0.29
				C100.43,218.07,100.44,221.07,102.36,221.16L102.36,221.16z"/>
		</g>
	</g>
	<g>
		<g>
			<path d="M103.93,177.39c3.9,0.24,7.8,0.72,11.7,0.41c1.91-0.15,1.93-3.15,0-3c-3.91,0.31-7.81-0.17-11.7-0.41
				C102,174.27,102.01,177.27,103.93,177.39L103.93,177.39z"/>
		</g>
	</g>
	<g>
		<g>
			<path d="M102.64,184.16c5.37,0.99,10.93,0.66,16.36,1.15c1.92,0.18,1.91-2.82,0-3c-5.16-0.47-10.47-0.11-15.56-1.05
				C101.55,180.92,100.74,183.81,102.64,184.16L102.64,184.16z"/>
		</g>
	</g>
	<g>
		<g>
			<path d="M102.93,192.12c4.37-0.12,8.68,0.74,13.05,0.62c1.93-0.05,1.93-3.05,0-3c-4.37,0.12-8.68-0.74-13.05-0.62
				C101,189.17,100.99,192.17,102.93,192.12L102.93,192.12z"/>
		</g>
	</g>
	<g>
		<g>
			<path d="M101.91,200c3.5,0.23,7,0.46,10.51,0.68c2.19,0.14,4.96,0.8,7.07-0.04c1.78-0.7,1-3.6-0.8-2.89
				c-2.08,0.82-5.41-0.02-7.59-0.16c-3.06-0.2-6.13-0.4-9.19-0.6C99.98,196.87,99.99,199.87,101.91,200L101.91,200z"/>
		</g>
	</g>
	<g>
		<g>
			<path d="M101.19,207.04c5.54,1.5,11.15,2.28,16.88,2.34c1.93,0.02,1.93-2.98,0-3c-5.47-0.05-10.8-0.8-16.08-2.23
				C100.12,203.65,99.33,206.54,101.19,207.04L101.19,207.04z"/>
		</g>
	</g>
	<g>
		<g>
			<path d="M28.03,184.08c18.99,3.28,38.19,2.48,57.36,2c1.93-0.05,1.93-3.05,0-3c-18.89,0.47-37.85,1.34-56.56-1.89
				C26.94,180.86,26.13,183.75,28.03,184.08L28.03,184.08z"/>
		</g>
	</g>
	<g>
		<g>
			<path d="M28.37,191.67c20.29,1.81,40.68,1.95,60.97,3.76c1.92,0.17,1.91-2.83,0-3c-20.29-1.81-40.68-1.95-60.97-3.76
				C26.45,188.5,26.46,191.5,28.37,191.67L28.37,191.67z"/>
		</g>
	</g>
	<g>
		<g>
			<path d="M27.97,200.2c17.35,0.76,34.65,1.9,51.96,3.39c1.92,0.17,1.91-2.83,0-3c-17.31-1.49-34.6-2.63-51.96-3.39
				C26.04,197.12,26.04,200.12,27.97,200.2L27.97,200.2z"/>
		</g>
	</g>
	<g>
		<g>
			<path d="M26.92,226.28c17.35,0.76,34.65,1.9,51.96,3.39c1.92,0.17,1.91-2.83,0-3c-17.31-1.49-34.6-2.63-51.96-3.39
				C24.99,223.19,25,226.19,26.92,226.28L26.92,226.28z"/>
		</g>
	</g>
	<g>
		<g>
			<path d="M27.45,209.24c20.71,0.93,41.39,2.59,62.13,2.58c1.93,0,1.93-3,0-3c-20.75,0.01-41.42-1.65-62.13-2.58
				C25.52,206.16,25.52,209.16,27.45,209.24L27.45,209.24z"/>
		</g>
	</g>
	<g>
		<g>
			<path d="M26.89,217.46c19.72,4.34,39.86,4.2,59.94,3.99c1.93-0.02,1.93-3.02,0-3c-19.81,0.21-39.69,0.4-59.14-3.89
				C25.81,214.15,25.01,217.05,26.89,217.46L26.89,217.46z"/>
		</g>
	</g>
	<g>
		<g>
			<path d="M148.97,136.53c8.22,35.35-13.06,70.86-2.21,106.01c0.19,0.62,0.78,1.12,1.45,1.1c22.16-0.61,44.36,0.63,66.22,4.49
				c4.86,0.86,9.91,2.58,14.82,2.92c2.21,0.15,4-0.51,5.07-2.53c1.82-3.41,1.96-8.56,2.58-12.36c0.64-3.97,1.02-7.96,1.19-11.98
				c0.48-11.07,0.07-22.1,2.29-33.03c2.12-10.4,5.72-20.46,7.12-31.01c1.13-8.52,0.86-17.46-2.61-25.44
				c-1.1-2.52-2.52-5.59-5.32-6.6c-4.11-1.49-10.37,0.35-14.57,0.71c-24.91,2.1-49.91,2.81-74.9,2.22c-1.93-0.05-1.93,2.95,0,3
				c19.47,0.46,38.95,0.14,58.39-1.03c4.54-0.27,9.07-0.59,13.6-0.95c4.44-0.36,15.13-3.16,18.47,0.72
				c5.59,6.5,5.01,18.9,4.01,26.77c-1.21,9.53-4.33,18.68-6.46,28.03c-1.99,8.72-2.59,17.47-2.76,26.4
				c-0.17,8.4-0.42,16.65-1.96,24.93c-0.34,1.85-0.43,4.89-1.25,6.55c-1.29,2.59-3.81,2.39-6.55,1.81c-4.69-1-9.4-1.89-14.13-2.66
				c-20.9-3.41-42.08-4.54-63.24-3.96c0.48,0.37,0.96,0.73,1.45,1.1c-10.82-35.03,10.43-70.63,2.21-106.01
				C151.43,133.85,148.54,134.64,148.97,136.53L148.97,136.53z"/>
		</g>
	</g>
	<g>
		<g>
			<path d="M263.54,132.48c5.79,38.16,0.54,76.44-0.66,114.71c-0.03,0.83,0.71,1.47,1.5,1.5c16.02,0.53,31.69-2.58,47.65-3.17
				c8.64-0.32,17.34,0.28,25.75,2.39c6.84,1.71,12.44,3.69,19.37,1.2c0.58-0.21,1.16-0.77,1.1-1.45
				c-1.44-15.47,1.08-30.58,3.05-45.88c1.8-13.95,5.66-27.42,5.73-41.58c0.03-7.12-0.01-14.77-1.19-21.81
				c-0.7-4.17-3.09-7.66-6.96-9.47c-5.27-2.46-10.3-0.3-15.67,0.62c-8.16,1.4-16.37,2.45-24.64,2.93c-17.96,1.05-35.7-1-53.16-5.23
				c-0.95-0.23-1.89,0.45-1.9,1.45c-0.01,1.13-0.02,2.26-0.04,3.39c-0.02,1.93,2.98,1.93,3,0c0.01-1.13,0.02-2.26,0.04-3.39
				c-0.63,0.48-1.27,0.96-1.9,1.45c17.42,4.23,35.16,6.35,53.09,5.39c9.14-0.49,18.23-1.67,27.24-3.25
				c3.38-0.59,7.3-2.16,10.71-1.33c6.35,1.55,7.22,7.03,7.64,12.62c0.61,8.12,1.04,16.27,0.44,24.4c-0.67,9.15-3.13,17.91-4.5,26.95
				c-2.63,17.37-5.63,35.15-4,52.74c0.37-0.48,0.73-0.96,1.1-1.45c-8.43,3.03-16.67-1.35-25.06-2.65
				c-6.92-1.08-13.92-1.32-20.91-0.97c-15.39,0.77-30.53,3.61-46,3.1c0.5,0.5,1,1,1.5,1.5c1.21-38.58,6.39-77.05,0.55-115.51
				C266.14,129.78,263.25,130.59,263.54,132.48z"/>
		</g>
	</g>
	<g>
		<g>
			<path d="M187.03,148.79c0.17,5.52,0.35,11.03,0.52,16.55c0.09,2.79-0.99,9.28,1.34,11.45c2.14,2,6.56,0.6,9.11,0.45
				c5.73-0.33,11.48-0.33,17.2,0c2.55,0.15,5.09,0.36,7.62,0.64c2.05,0.23,4.66,1.33,6.66,0.78c2.51-0.69,3.02-3.06,3.55-5.45
				c2.26-10.16,0.79-21.82,0.72-32.16c-0.01-0.9-0.97-1.8-1.9-1.45c-6.62,2.48-13.55,2.6-20.54,2.85
				c-6.97,0.24-13.94,0.49-20.91,0.73c-1.93,0.07-1.93,3.07,0,3c7.63-0.27,15.26-0.53,22.9-0.8c6.61-0.23,13.09-0.54,19.34-2.88
				c-0.63-0.48-1.27-0.96-1.9-1.45c0.05,8.07,0.2,16.16,0.04,24.23c-0.08,3.91,0.66,9.35-4.17,10.08c-3.33,0.5-7.99-0.91-11.42-1.11
				c-3.82-0.22-7.65-0.3-11.47-0.22c-1.91,0.04-3.82,0.11-5.73,0.22c-1.06,0.06-4.74,1.01-5.72,0.45
				c-2.73-1.57-1.74-9.64-1.82-12.27c-0.14-4.54-0.28-9.08-0.43-13.63C189.97,146.86,186.97,146.86,187.03,148.79L187.03,148.79z"/>
		</g>
	</g>
	<g>
		<g>
			<path d="M187.67,186.96c-0.89,16.92-1.79,33.84-2.68,50.76c-0.05,0.96,1,1.73,1.9,1.45c6.65-2.07,12.9,1.34,19.47,2.02
				c6.32,0.65,12.63-1.97,18.77,0.34c0.74,0.28,1.67-0.32,1.85-1.05c2.2-8.97-1.49-18.35-0.55-27.53
				c0.97-9.54,3.22-18.76,1.75-28.37c-0.12-0.81-1.13-1.23-1.85-1.05c-12.55,3.27-25.24,1.12-37.75-1.21
				c-1.89-0.35-2.7,2.54-0.8,2.89c13.05,2.43,26.27,4.62,39.35,1.21c-0.62-0.35-1.23-0.7-1.85-1.05c1.43,9.3-0.94,18.36-1.85,27.58
				c-0.4,3.99-0.42,7.91,0.07,11.89c0.63,5.06,1.83,9.77,0.59,14.84c0.62-0.35,1.23-0.7,1.85-1.05c-6.95-2.62-14.18,0.54-21.33-0.74
				c-6.31-1.13-12.1-3.61-18.5-1.62c0.63,0.48,1.27,0.96,1.9,1.45c0.89-16.92,1.79-33.84,2.68-50.76
				C190.77,185.03,187.77,185.04,187.67,186.96L187.67,186.96z"/>
		</g>
	</g>
	<g>
		<g>
			<path d="M280.22,178.3c7.65-0.29,15.31-0.57,22.96-0.86c3.55-0.13,7.43-0.7,10.98-0.41c2.67,0.22,5.34,0.21,5.37,3.51
				c0.01,1.68-0.25,3.43-0.38,5.09c-1.2,14.86-2.39,29.72-3.59,44.58c0.75-0.43,1.5-0.86,2.26-1.3c-5.9-2.58-11.9-3.05-18.27-2.56
				c-3.79,0.29-7.56,0.85-11.34,1.19c-3.02,0.27-9.07,1.75-10.3-1.96c-1.05-3.17-0.06-8.19-0.08-11.56
				c-0.03-3.85-0.05-7.71-0.08-11.56c-0.06-8.35-0.12-16.7-0.17-25.06c-0.01-1.93-3.01-1.93-3,0c0.06,8.99,0.13,17.99,0.19,26.98
				c0.03,4.5,0.06,8.99,0.09,13.49c0.02,3.12-0.91,7.78,0.27,10.67c1.82,4.46,10.99,2.22,14.83,1.82
				c8.87-0.91,17.86-2.58,26.35,1.14c1.08,0.47,2.16-0.08,2.26-1.3c0.73-9.04,1.46-18.09,2.19-27.13c0.36-4.52,0.73-9.04,1.09-13.57
				c0.29-3.56,1.24-7.64,0.52-11.19c-1.24-6.16-8.6-4.28-13.19-4.11c-9.65,0.36-19.3,0.72-28.96,1.08
				C278.29,175.38,278.28,178.38,280.22,178.3L280.22,178.3z"/>
		</g>
	</g>
	<g>
		<g>
			<path d="M159.15,148.5c3.76,0.29,7.46,0.12,11.19-0.44c1.9-0.28,1.09-3.18-0.8-2.89c-3.45,0.52-6.92,0.6-10.39,0.33
				C157.23,145.36,157.24,148.36,159.15,148.5L159.15,148.5z"/>
		</g>
	</g>
	<g>
		<g>
			<path d="M159.72,156.06c4.15,0.43,8.31,0.85,12.46,1.28c1.92,0.2,1.9-2.8,0-3c-4.15-0.43-8.31-0.85-12.46-1.28
				C157.8,152.86,157.81,155.86,159.72,156.06L159.72,156.06z"/>
		</g>
	</g>
	<g>
		<g>
			<path d="M158.59,164.84c4.9-0.58,9.8-0.8,14.73-0.68c1.93,0.05,1.93-2.95,0-3c-4.93-0.12-9.83,0.1-14.73,0.68
				C156.7,162.06,156.68,165.06,158.59,164.84L158.59,164.84z"/>
		</g>
	</g>
	<g>
		<g>
			<path d="M159.15,173.46c6.93-0.22,13.79,0.19,20.63,1.3c1.89,0.31,2.7-2.58,0.8-2.89c-7.11-1.15-14.23-1.64-21.43-1.41
				C157.23,170.52,157.22,173.52,159.15,173.46L159.15,173.46z"/>
		</g>
	</g>
	<g>
		<g>
			<path d="M157.45,183.8c5.12,0.18,10.21-0.04,15.3-0.66c1.89-0.23,1.92-3.23,0-3c-5.09,0.62-10.18,0.84-15.3,0.66
				C155.52,180.73,155.52,183.73,157.45,183.8L157.45,183.8z"/>
		</g>
	</g>
	<g>
		<g>
			<path d="M156.54,195.62c6.33,1.26,12.6,1.14,18.87-0.38c1.88-0.46,1.08-3.35-0.8-2.89c-5.75,1.4-11.47,1.53-17.27,0.38
				C155.45,192.36,154.64,195.25,156.54,195.62L156.54,195.62z"/>
		</g>
	</g>
	<g>
		<g>
			<path d="M155.87,205.4c6.36,1.06,12.71,1.37,19.15,0.86c1.91-0.15,1.93-3.15,0-3c-6.16,0.49-12.25,0.26-18.35-0.75
				C154.78,202.19,153.97,205.08,155.87,205.4L155.87,205.4z"/>
		</g>
	</g>
	<g>
		<g>
			<path d="M156.89,216.03c5.5,0.48,10.97,0.47,16.47-0.03c1.91-0.18,1.92-3.18,0-3c-5.5,0.51-10.97,0.52-16.47,0.03
				C154.97,212.86,154.98,215.86,156.89,216.03L156.89,216.03z"/>
		</g>
	</g>
	<g>
		<g>
			<path d="M152.96,226.25c4.29,0.55,8.58,1.11,12.87,1.66c2.67,0.34,8.05,2.16,10.55,1.08c2.13-0.92,2.23-4.08-0.48-4.07
				c-1.93,0.01-1.93,3.01,0,3c-0.18-1.69-1.09-2.37-2.72-2.06c-0.61-0.08-1.23-0.16-1.84-0.24c-2.14-0.28-4.29-0.55-6.43-0.83
				c-3.98-0.51-7.97-1.03-11.95-1.54C151.05,223.01,151.07,226.01,152.96,226.25L152.96,226.25z"/>
		</g>
	</g>
	<g>
		<g>
			<path d="M280.03,147.74c12.7-2.86,25.45-0.3,38.22,0.5c12.34,0.77,24.68-0.01,36.87-2.06c1.9-0.32,1.09-3.21-0.8-2.89
				c-13.18,2.21-26.51,2.79-39.83,1.67c-11.82-0.99-23.52-2.76-35.25-0.12C277.35,145.27,278.15,148.16,280.03,147.74L280.03,147.74
				z"/>
		</g>
	</g>
	<g>
		<g>
			<path d="M281.24,155.64c9.09,1.17,18.21,1.96,27.37,2.39c1.93,0.09,1.93-2.91,0-3c-9.16-0.43-18.28-1.22-27.37-2.39
				C279.33,152.4,279.35,155.4,281.24,155.64L281.24,155.64z"/>
		</g>
	</g>
	<g>
		<g>
			<path d="M280.7,167.07c10.54,0.46,21.09,0.28,31.58-0.94c4.58-0.53,9.14-1.24,13.67-2.15c6.1-1.23,12.02-2.78,18.17-0.97
				c1.86,0.54,2.65-2.35,0.8-2.89c-9.76-2.86-20.25,1.38-29.98,2.68c-11.35,1.52-22.8,1.79-34.23,1.28
				C278.77,163.98,278.78,166.98,280.7,167.07L280.7,167.07z"/>
		</g>
	</g>
	<g>
		<g>
			<path d="M334.52,179.49c4.57-0.22,9.13-0.43,13.7-0.65c1.92-0.09,1.93-3.09,0-3c-4.57,0.22-9.13,0.43-13.7,0.65
				C332.59,176.59,332.58,179.59,334.52,179.49L334.52,179.49z"/>
		</g>
	</g>
	<g>
		<g>
			<path d="M334.52,187.31c3.17,0.33,6.34,0.67,9.51,1c2.06,0.22,4.35,1.02,6.04-0.43c0.38-0.33,0.54-0.99,0.39-1.46
				c-0.28-0.83-0.63-1.23-1.49-1.47c-0.6-0.17-1.4,0.11-1.69,0.69c-0.04,0.08-0.08,0.15-0.11,0.23c-0.87,1.72,1.72,3.24,2.59,1.51
				c0.04-0.08,0.08-0.15,0.11-0.23c-0.56,0.23-1.13,0.46-1.69,0.69c0.11,0.03,0.22,0.06,0.33,0.1c-0.35-0.35-0.7-0.7-1.05-1.05
				c0.04,0.11,0.07,0.22,0.11,0.33c0.13-0.49,0.26-0.97,0.39-1.46c-0.08,0.06-1.89-0.23-2.24-0.27c-1.31-0.14-2.61-0.27-3.92-0.41
				c-2.43-0.25-4.85-0.51-7.28-0.76C332.61,184.11,332.62,187.11,334.52,187.31L334.52,187.31z"/>
		</g>
	</g>
	<g>
		<g>
			<path d="M334.01,196.3c3.72,0,7.44,0,11.17,0c1.93,0,1.93-3,0-3c-3.72,0-7.44,0-11.17,0C332.08,193.3,332.07,196.3,334.01,196.3
				L334.01,196.3z"/>
		</g>
	</g>
	<g>
		<g>
			<path d="M331.47,205.23c4.05,0.34,8.1,0.69,12.15,1.03c1.92,0.16,1.91-2.84,0-3c-4.05-0.34-8.1-0.69-12.15-1.03
				C329.55,202.06,329.56,205.06,331.47,205.23L331.47,205.23z"/>
		</g>
	</g>
	<g>
		<g>
			<path d="M330.46,214.76c4.07,0.51,8.13,1.02,12.2,1.54c1.91,0.24,1.89-2.76,0-3c-4.07-0.51-8.13-1.02-12.2-1.54
				C328.55,211.52,328.57,214.52,330.46,214.76L330.46,214.76z"/>
		</g>
	</g>
	<g>
		<g>
			<path d="M329.43,225.64c4.16,0.29,8.27,0.85,12.36,1.68c1.88,0.38,2.69-2.51,0.8-2.89c-4.35-0.89-8.73-1.48-13.16-1.79
				C327.51,222.5,327.51,225.5,329.43,225.64L329.43,225.64z"/>
		</g>
	</g>
	<g>
		<g>
			<path d="M382.41,132.6c-0.31,15.88-0.52,31.76-0.94,47.64c-0.21,8.01-0.74,15.95-2.12,23.86c-1.17,6.68-2.7,13.3-3.59,20.04
				c-0.86,6.54-1.12,13.22,0.26,19.71c1.01,4.74,1.92,6.94,6.82,7.58c15.64,2.04,31.31,2.88,46.89,5.64
				c7.47,1.32,14.93,3.54,22.42,4.59c3.78,0.53,5.86-0.24,6.45-4.33c2.21-15.28,0.54-31.05,2.45-46.42
				c1.9-15.24,7.33-29.72,8.75-45.06c0.66-7.1,0.77-14.24,0.67-21.36c-0.05-3.9-0.18-7.79-0.32-11.69c-0.09-2.4,0.37-5.81-1.26-7.86
				c-3.13-3.92-13.21-3.21-17.54-3.23c-8.97-0.04-17.92,1.08-26.9,0.74c-13.46-0.5-28.33-3.68-39.06,6.72
				c-1.39,1.35,0.73,3.47,2.12,2.12c9.77-9.47,23.81-6.46,36.03-5.89c6.08,0.28,12.14-0.11,18.21-0.41c3.2-0.16,6.39-0.3,9.59-0.29
				c3.31,0.01,10.2-0.58,12.89,1.13c4.92,3.13,3.18,14.36,3.24,19.61c0.08,6.8-0.05,13.61-0.68,20.39
				c-1.23,13.3-5.63,25.82-7.86,38.92c-2.14,12.56-2.2,25.33-2.6,38.03c-0.09,2.91-0.2,5.82-0.36,8.72
				c-0.14,2.47,0.33,6.21-3.04,7.24c-0.55,0.17-3.41-0.78-3.72-0.85c-6.82-1.52-13.69-2.88-20.58-4.07
				c-12.03-2.07-24.15-3.65-36.31-4.7c-2.89-0.25-6.82,0.18-9.5-0.72c-4.27-1.44-4.3-6.36-4.63-10.18
				c-0.56-6.38,0.25-12.79,1.34-19.06c2.38-13.73,4.65-26.86,4.97-40.84c0.35-15.25,0.6-30.49,0.9-45.74
				C385.44,130.67,382.44,130.67,382.41,132.6L382.41,132.6z"/>
		</g>
	</g>
	<g>
		<g>
			<path d="M388.46,198.47c0.2,8.24,0.39,16.48,0.59,24.72c0.09,3.96,0.19,7.91,0.28,11.87c0.06,2.55-0.29,5.59,1.65,7.53
				c1.16,1.17,2.81,1.38,4.38,1.51c3.99,0.33,8.08,0.18,12.08,0.26c7.97,0.16,15.93,0.32,23.9,0.48c6.53,0.13,9.41,0.39,12.1-5.98
				c2.87-6.78,4.97-13.91,6.3-21.15c0.57-3.1,1.01-6.23,1.31-9.37c0.29-3.04,1.2-7.23,0.26-10.2c-1.37-4.32-9.07-2.7-12.58-2.82
				c-8.24-0.28-16.47-0.59-24.71-0.82c-4.2-0.12-8.4-0.22-12.6-0.04c-3.8,0.17-6.73,1.03-10.21-0.81c-1.7-0.9-3.22,1.68-1.51,2.59
				c4.8,2.54,9.12,1.24,14.43,1.14c7.7-0.15,15.44,0.28,23.14,0.55c3.55,0.12,7.09,0.25,10.64,0.37c2.03,0.07,4.06,0.14,6.09,0.2
				c2.61,0.08,4.01-0.84,4.51,2.61c0.58,3.96-0.59,9.29-1.19,13.13c-0.61,3.88-1.44,7.72-2.49,11.5c-0.97,3.49-2.11,6.93-3.44,10.29
				c-1.41,3.57-1.9,5.4-6.21,5.89c-2.15,0.25-4.53-0.09-6.69-0.14c-8.29-0.17-16.57-0.33-24.86-0.5c-3.95-0.08-9.89,1.47-11.22-3.26
				c-1.11-3.95-0.23-9.77-0.33-13.84c-0.2-8.57-0.41-17.14-0.61-25.71C391.41,196.54,388.41,196.53,388.46,198.47L388.46,198.47z"/>
		</g>
	</g>
	<g>
		<g>
			<path d="M429.63,143.12c0.73,5.74,1.02,11.49,0.66,17.27c-0.21,3.39-0.62,6.76-1.24,10.09c-0.33,1.78-1.07,3.83-0.86,5.67
				c0.26,2.25,1.56,3.52,3.83,3.7c2.35,0.19,4.96-0.76,7.34-0.81c3-0.06,6,0.28,8.91,1.01c2.71,0.68,5.31,2.41,7.62,0.26
				c2.21-2.07,2.74-6.25,2.96-9.08c0.76-9.53-3.34-18.91-0.49-28.33c0.3-1.01-0.51-1.81-1.45-1.9c-7.01-0.66-14.01-1.33-21.02-1.99
				c-1.92-0.18-1.91,2.82,0,3c7.01,0.66,14.01,1.33,21.02,1.99c-0.48-0.63-0.96-1.27-1.45-1.9c-1.97,6.5-0.9,12.97-0.09,19.58
				c0.46,3.71,0.92,7.55,0.28,11.27c-0.34,1.97-0.84,4.68-3.32,5.22c-1.23,0.27-4.39-1.29-5.78-1.54c-3.22-0.58-6.5-0.75-9.76-0.45
				c-2.46,0.22-4.62,1.71-5.43-2.06c-0.31-1.45,0.83-4.23,1.05-5.67c1.28-8.42,1.28-16.88,0.2-25.32
				C432.38,141.23,429.38,141.21,429.63,143.12L429.63,143.12z"/>
		</g>
	</g>
	<g>
		<g>
			<path d="M388.46,143.59c-0.33,5.86-0.55,11.73-0.63,17.6c-0.06,4.79-1.09,11.39,0.17,16.05c0.69,2.55,2.27,2.38,4.72,2.44
				c5.64,0.15,11.29,0.18,16.93,0.27c2.75,0.04,7.71,1.2,10.12-0.5c2.32-1.63,2.61-5.7,2.88-8.24c1.08-10.13-2.83-20.04-1.62-30.2
				c0.13-1.07-1.05-1.58-1.9-1.45c-9.89,1.58-19.78,1.74-29.72,0.57c-1.91-0.23-1.9,2.78,0,3c10.21,1.2,20.37,0.95,30.52-0.67
				c-0.63-0.48-1.27-0.96-1.9-1.45c-0.86,7.23,0.72,14.18,1.48,21.34c0.38,3.57,0.93,8.19-0.34,11.61
				c-1.31,3.52-2.55,3.11-5.74,3.06c-1.88-0.03-3.76-0.06-5.64-0.09c-3.76-0.06-7.52-0.12-11.29-0.18
				c-1.25-0.02-2.51-0.04-3.76-0.06c-1.57,0.6-2.19,0.3-1.85-0.91c-0.7-1.36-0.05-5.18-0.06-6.75c-0.07-8.48,0.17-16.95,0.65-25.42
				C391.57,141.66,388.57,141.67,388.46,143.59L388.46,143.59z"/>
		</g>
	</g>
	<g>
		<g>
			<path class="st1" d="M222.67,125.63c-13.12,0.3-31.39-1.82-39.2,11.47c-7.06,12.02-0.55,24.48,9.47,32.24
				c11.05,8.56,26.99,11.12,38.91,2.69c10.55-7.46,14.27-22.17,7.38-33.33c-3.12-5.05-26.92-26.64-30.5-15.06
				c-0.57,1.85,2.32,2.64,2.89,0.8c1.23-4,17.88,7.99,19.19,9.13c5.17,4.52,8.99,10.47,9.02,17.52
				c0.06,16.51-17.1,26.02-31.96,22.35c-12.7-3.14-27.75-15.77-23.74-30.24c4.61-16.62,25.09-14.26,38.54-14.56
				C224.6,128.59,224.6,125.59,222.67,125.63L222.67,125.63z"/>
		</g>
	</g>
	<g>
		<g>
			<path class="st1" d="M197.15,134.31c6.43,6.39,12.42,13.2,17.8,20.49c2.39,3.24,4.67,6.57,6.83,9.96
				c1.56,2.45,2.63,5.84,5.72,6.44c1.89,0.37,2.69-2.52,0.8-2.89c-2.55-0.5-6.19-8.57-7.74-10.81c-1.88-2.7-3.83-5.35-5.85-7.95
				c-4.76-6.13-9.93-11.9-15.43-17.36C197.9,130.83,195.78,132.95,197.15,134.31L197.15,134.31z"/>
		</g>
	</g>
	<g>
		<g>
			<path class="st1" d="M228.73,137.86c-5.05,8.63-11.16,16.56-18.37,23.5c-3.63,3.5-7.51,6.73-11.61,9.66
				c-2.91,2.09-5.78,3.89-7.79,6.93c-1.07,1.62,1.53,3.12,2.59,1.51c2.44-3.69,6.84-5.85,10.29-8.53c3.87-3,7.54-6.26,10.96-9.77
				c6.41-6.55,11.9-13.9,16.52-21.8C232.3,137.7,229.71,136.19,228.73,137.86L228.73,137.86z"/>
		</g>
	</g>
	<g>
		<g>
			<path class="st1" d="M85.15,175.11c-5.72-5.49-13.38-6.68-21.02-5.62c-9.7,1.35-19.39,4.74-28.79,7.41
				c-6.72,1.91-13.05,4.78-15.38,11.9c-2.57,7.84-0.41,17.25,1.53,24.98c1.6,6.4,3.54,16.34,10.01,19.75
				c3.35,1.76,7.6,1.87,11.26,2.41c5.16,0.76,10.32,1.53,15.5,2.11c8.4,0.93,17.8,1.36,25.63-2.4c7.29-3.51,8.62-9.43,8.95-16.96
				c0.55-12.54,1.75-25.28,1.59-37.83c-0.04-2.94-0.57-4.85-3.33-6.24c-4.45-2.24-10.62-2.77-15.48-3.54
				c-1.89-0.3-2.7,2.59-0.8,2.89c4.14,0.65,10.25,0.93,13.94,3.01c4.4,2.48,2.43,9.54,2.25,13.84c-0.42,9.94-0.57,19.94-1.26,29.86
				c-0.45,6.51-2.64,10.7-8.92,13.03c-4.21,1.56-8.79,1.96-13.25,1.95c-9.87-0.02-20.04-1.8-29.74-3.47
				c-5.45-0.94-8.17-3.52-10.13-8.54c-1.8-4.62-3.15-9.44-4.18-14.29c-1.84-8.71-4.17-21.19,4.98-26.67
				c3.64-2.18,8.15-3.04,12.19-4.15c5.03-1.38,10.06-2.8,15.1-4.15c9.16-2.44,19.67-4.41,27.22,2.84
				C84.42,178.57,86.55,176.45,85.15,175.11L85.15,175.11z"/>
		</g>
	</g>
	<g>
		<g>
			<path class="st1" d="M61.4,238.61c5.03,8.29,13.41,11.27,21.69,15.43c9.7,4.87,18.52,8.33,29.38,9.82
				c12.12,1.66,23.84,3.36,35.78,6.04c11.87,2.66,23.93,4.47,36.04,5.51c25.43,2.19,50.3,0.17,75.58-2.51
				c23.26-2.47,47.03-1.53,69.84-7.36c13.45-3.44,26.05-9.72,39.14-14.29c11.78-4.12,25.15-5.74,35.96-12.18
				c1.66-0.99,0.15-3.58-1.51-2.59c-9.59,5.71-21.3,7.16-31.79,10.69c-10.96,3.69-21.51,8.39-32.36,12.34
				c-21.91,7.98-45.53,7.82-68.49,9.46c-23.85,1.7-47.19,5.18-71.2,4.35c-12.52-0.43-25.01-1.63-37.36-3.74
				c-11.04-1.89-21.79-5.18-32.89-6.7c-12.3-1.69-25.04-2.05-36.54-7.22c-5.19-2.33-10.2-5.17-15.33-7.64
				c-5.44-2.62-10.14-5.64-13.35-10.92C62.99,235.44,60.39,236.95,61.4,238.61L61.4,238.61z"/>
		</g>
	</g>
	<g>
		<g>
			<path class="st1" d="M379.17,237.41c11.23,0.34,22.46,0.68,33.69,1.01c-0.43-0.75-0.86-1.5-1.3-2.26
				c-5.26,6.94-10.52,13.89-15.78,20.83c-1.17,1.54,1.44,3.04,2.59,1.51c5.26-6.94,10.52-13.89,15.78-20.83
				c0.73-0.96-0.27-2.23-1.3-2.26c-11.23-0.34-22.46-0.68-33.69-1.01C377.24,234.35,377.24,237.35,379.17,237.41L379.17,237.41z"/>
		</g>
	</g>
	<g>
		<g>
			<path class="st1" d="M296.99,134.72c-6.64-0.63-13.27,0.75-19.04,4.15c-4.17,2.45-11.38,7.77-11.12,13.3
				c0.25,5.5,8.04,9.92,12.41,11.96c6.34,2.97,13.29,4.22,20.21,4.95c8.76,0.92,17.69,1.38,26.5,1.37
				c7.91-0.01,16.45-0.32,23.94-3.17c5.28-2.01,10.43-5.66,12.08-11.33c1.92-6.63-3.74-10.54-8.73-13.63
				c-15.19-9.38-33.81-10.37-51.16-11.13c-1.93-0.08-1.93,2.92,0,3c15.08,0.66,30.96,1.4,44.8,8.06c3.54,1.71,7.43,3.82,10.29,6.58
				c5.17,5.01-0.17,11.28-4.69,13.95c-6.9,4.07-15.83,4.45-23.6,4.63c-8.29,0.18-16.63-0.31-24.89-0.94
				c-7.06-0.53-14.24-1.4-20.89-3.96c-3.59-1.38-7-3.28-9.88-5.85c-2.78-2.48-3.8-5.6-1.23-8.8c0.92-1.15,1.97-2.21,3.06-3.19
				c6.04-5.38,13.98-7.72,21.97-6.96C298.91,137.91,298.89,134.9,296.99,134.72L296.99,134.72z"/>
		</g>
	</g>
	<g>
		<g>
			<path class="st1" d="M301.88,124.09c-3.18-14.69-8.37-28.75-15.48-41.99c-0.91-1.7-3.5-0.19-2.59,1.51
				c6.99,13.02,12.05,26.83,15.18,41.28C299.39,126.78,302.29,125.98,301.88,124.09L301.88,124.09z"/>
		</g>
	</g>
	<g>
		<g>
			<path class="st1" d="M120.03,46.91c21.26-1.8,42.4-4.71,63.36-8.7c1.89-0.36,1.09-3.25-0.8-2.89
				c-20.7,3.94-41.56,6.81-62.56,8.59C118.12,44.07,118.1,47.07,120.03,46.91L120.03,46.91z"/>
		</g>
	</g>
	<g>
		<g>
			<path class="st2" d="M164.36,17c0.07,1.72,1.18,3.31,2.91,3.71c1.7,0.39,3.47-0.58,4.18-2.14c0.74-1.62-0.59-3.14-2.19-3.45
				c-1.48-0.29-3.17,0.31-3.84,1.74c-0.42,0.9,0.05,2.41,1.3,2.26c1.88-0.24,2.77-2.5,1.35-3.91c-1.7-1.69-4.19,0.42-4.15,2.37
				c0.04,1.93,3.04,1.93,3,0c0.01-0.12,0-0.14-0.05-0.05c-0.19,0.35-0.53,0.24-1.03-0.34c-0.14-0.3-0.11-0.72,0.27-0.9
				c0.25-0.07,0.5-0.14,0.76-0.2c-0.05,0.01-0.1,0.01-0.15,0.02c0.43,0.75,0.86,1.5,1.3,2.26c0.2-0.43,0.7-0.48,0.92-0.04
				c-0.05-0.39-0.1-0.77-0.15-1.16c-0.27,0.88-1.39,0.76-1.42-0.18C167.29,15.08,164.28,15.07,164.36,17L164.36,17z"/>
		</g>
	</g>
	<g>
		<g>
			<path class="st2" d="M179.04,19.54c9.59-0.17,19.19-0.35,28.78-0.52c4.19-0.08,8.42-0.02,12.59-0.45
				c4.02-0.41,7.91-1.95,11.95-1.92c1.93,0.02,1.93-2.98,0-3c-3.41-0.03-6.5,1.09-9.83,1.64c-4.83,0.81-9.83,0.63-14.71,0.72
				c-9.59,0.17-19.19,0.35-28.78,0.52C177.11,16.57,177.1,19.57,179.04,19.54L179.04,19.54z"/>
		</g>
	</g>
	<g>
		<g>
			<path class="st2" d="M174.46,30.71c14.55,0.96,29.11,0.85,43.65-0.35c1.91-0.16,1.93-3.16,0-3c-14.54,1.19-29.09,1.31-43.65,0.35
				C172.53,27.58,172.54,30.59,174.46,30.71L174.46,30.71z"/>
		</g>
	</g>
	<g>
		<g>
			<path class="st2" d="M181.11,44.56c12.61,0.14,24.96,4.01,37.61,2.35c1.89-0.25,1.91-3.25,0-3c-12.64,1.66-25-2.21-37.61-2.35
				C179.17,41.54,179.17,44.54,181.11,44.56L181.11,44.56z"/>
		</g>
	</g>
	<g>
		<g>
			<path class="st2" d="M163.99,58.87c-0.32,1.19,0.35,2.49,1.54,2.87c0.75,0.24,1.62,0.07,2.05-0.64c0.27-0.44,0.33-0.98,0.17-1.47
				c-0.36-1.17-1.83-1.74-2.89-1.14c-1.16,0.66-1.18,2.27-0.31,3.17c0.87,0.89,2.29,0.86,3.16,0c0.84-0.83,1.14-2.28,0.24-3.18
				c-0.89-0.88-2.49-0.73-3.12,0.39c-0.65,1.16,0.01,2.57,1.24,2.95c0.75,0.23,1.67-0.27,1.85-1.05c0.19-0.81-0.24-1.6-1.05-1.85
				c0.55,0.21,0.78,0.61,0.67,1.19c-1.01,1.16-1.68,0.99-2-0.5c0.08-0.14,0.07-0.14-0.01,0.01c0.03-0.06,0.07-0.1,0.12-0.14
				c0.51-0.09,0.82-0.26,1.16,0.2c0.01,1.15-0.41,1.66-1.24,1.52c-0.61-0.17-0.8-0.72-0.58-1.63c0.43-0.25,0.86-0.5,1.3-0.74
				c-0.19,0-0.16,0.02,0.08,0.06c0.12,0,0.23,0.04,0.32,0.12c0.18,0.14,0.25,0.43,0.19,0.65c0.2-0.76-0.25-1.66-1.05-1.85
				C165.05,57.64,164.21,58.06,163.99,58.87L163.99,58.87z"/>
		</g>
	</g>
	<g>
		<g>
			<path class="st2" d="M176.16,62.44c13.54,1.11,27.11,1.67,40.7,1.69c1.17,0,1.82-1.26,1.3-2.26c-0.86-1.63-1.95-1.97-3.69-1.72
				c-1.9,0.27-1.09,3.16,0.8,2.89c0.1,0.12,0.2,0.23,0.31,0.35c0.43-0.75,0.86-1.5,1.3-2.26c-13.59-0.02-27.15-0.58-40.7-1.69
				C174.24,59.28,174.25,62.28,176.16,62.44L176.16,62.44z"/>
		</g>
	</g>
	<g>
		<g>
			<path class="st2" d="M180.1,72.48c16.72,2.06,33.52,2.97,50.36,2.73c1.21-0.02,2.1-1.69,1.06-2.56c-1.4-1.18-2.41-1.62-4.3-1.6
				c-1.93,0.02-1.93,3.02,0,3c0.73,0.24,1.45,0.48,2.18,0.73c0.35-0.85,0.71-1.71,1.06-2.56c-16.84,0.24-33.64-0.67-50.36-2.73
				C178.19,69.24,178.21,72.25,180.1,72.48L180.1,72.48z"/>
		</g>
	</g>
	<g>
		<g>
			<path class="st2" d="M179.54,84.08c11.4,0.83,22.77,0.55,34.11-0.85c1.89-0.23,1.91-3.24,0-3c-11.35,1.4-22.71,1.68-34.11,0.85
				C177.62,80.94,177.63,83.94,179.54,84.08L179.54,84.08z"/>
		</g>
	</g>
	<g>
		<g>
			<path class="st2" d="M182,94.14c10.84,1.81,21.74,2.6,32.73,2.32c1.93-0.05,1.93-3.05,0-3c-10.72,0.27-21.36-0.45-31.93-2.21
				C180.91,90.93,180.1,93.82,182,94.14L182,94.14z"/>
		</g>
	</g>
	<g>
		<g>
			<path class="st2" d="M264.57,16.93c0.04-0.06,0.09-0.12,0.15-0.17c-0.15,0.11-0.18,0.13-0.08,0.07c0.1-0.05,0.06-0.04-0.11,0.04
				c0.17-0.04,0.14-0.04-0.07-0.01c0.12-0.01,0.4,0.06,0.05-0.03c0.17,0.04,0.28,0.15,0.06-0.01c0.27,0.2-0.19-0.17,0.05,0.02
				c-0.11-0.17-0.13-0.18-0.04-0.04c-0.06-0.16-0.07-0.18-0.04-0.07c0.09,0.23-0.07-0.52-0.02-0.11c0.02-0.04,0.04-0.08,0.06-0.12
				c-0.04,0.08-0.08,0.15-0.13,0.22c0.09-0.12,0.1-0.14,0.03-0.06c-0.08,0.07-0.06,0.06,0.06-0.03c-0.15,0.08-0.14,0.09,0.02,0.01
				c-0.04,0.01-0.08,0.02-0.12,0.03c0.1-0.04,0.21-0.04,0.32,0c-0.13-0.04-0.14-0.04-0.03,0c0.11,0.05,0.11,0.04-0.01-0.02
				c0.16,0.13,0.17,0.13,0.05,0.02c0.03,0.04,0.06,0.09,0.09,0.13c-0.04-0.06-0.08-0.13-0.12-0.19c0.16,0.22,0.04,0.08,0-0.07
				c0.1,0.34,0.02,0.08,0.03-0.05c-0.03,0.21-0.03,0.24,0.02,0.07c-0.08,0.19-0.08,0.21,0.01,0.06c0.45-0.68,0.14-1.66-0.54-2.05
				c-0.73-0.43-1.61-0.14-2.05,0.54c-0.78,1.19-0.46,2.85,0.56,3.8c1.29,1.2,3.22,0.81,4.19-0.57c0.92-1.3,0.63-3.1-0.7-3.99
				c-1.14-0.77-2.93-0.64-3.81,0.46c-0.51,0.63-0.62,1.51,0,2.12C262.98,17.45,264.06,17.56,264.57,16.93L264.57,16.93z"/>
		</g>
	</g>
	<g>
		<g>
			<path class="st2" d="M273.16,17.65c10.41,1.29,20.83,2.58,31.27,3.63c9.54,0.96,19.14,2.1,28.68,0.64
				c1.22-0.19,1.51-2.25,0.36-2.74c-0.56-0.24-1.12-0.47-1.67-0.71c-1.76-0.74-3.29,1.84-1.51,2.59c0.56,0.24,1.12,0.47,1.67,0.71
				c0.12-0.91,0.24-1.83,0.36-2.74c-9.84,1.51-19.95,0.08-29.78-0.94c-9.8-1.02-19.59-2.23-29.37-3.44
				C271.25,14.41,271.27,17.41,273.16,17.65L273.16,17.65z"/>
		</g>
	</g>
	<g>
		<g>
			<path class="st2" d="M285.04,27.06c-0.83,0-1.66,0-2.48,0c-1.93,0-1.93,2.97,0,3c10.74,0.16,21.47,0.54,32.2,1.16c0-1,0-2,0-3
				c-0.64,0-1.29,0-1.93,0c-1.93,0-1.93,3,0,3c0.64,0,1.29,0,1.93,0c1.94,0,1.92-2.89,0-3c-10.72-0.61-21.46-1-32.2-1.16
				c0,1,0,2,0,3c0.83,0,1.66,0,2.48,0C286.97,30.06,286.97,27.06,285.04,27.06L285.04,27.06z"/>
		</g>
	</g>
	<g>
		<g>
			<path class="st2" d="M281.66,40.73c15.65,1.58,31.34,2.48,47.06,2.71c0.74,0.01,1.59-0.7,1.5-1.5c-0.2-1.77-0.82-2.76-2.63-3.19
				c-1.88-0.45-2.68,2.45-0.8,2.89c0.14,0.1,0.28,0.2,0.43,0.3c0.5-0.5,1-1,1.5-1.5c-15.72-0.23-31.41-1.13-47.06-2.71
				C279.75,37.53,279.76,40.54,281.66,40.73L281.66,40.73z"/>
		</g>
	</g>
	<g>
		<g>
			<path class="st2" d="M264.06,65.32c0.95,0,1.89,0,2.84,0c1.93,0,1.93-3,0-3c-0.95,0-1.89,0-2.84,0
				C262.12,62.32,262.12,65.32,264.06,65.32L264.06,65.32z"/>
		</g>
	</g>
	<g>
		<g>
			<path class="st2" d="M279.87,65.97c17.36-1.96,34.71-0.28,52.01,1.53c1.68,0.18,2.04-2.59,0.4-2.95
				c-0.68-0.15-1.37-0.3-2.05-0.44c-1.88-0.41-2.69,2.48-0.8,2.89c0.68,0.15,1.37,0.3,2.05,0.44c0.13-0.98,0.27-1.96,0.4-2.95
				c-17.3-1.81-34.65-3.49-52.01-1.53C277.97,63.18,277.95,66.18,279.87,65.97L279.87,65.97z"/>
		</g>
	</g>
	<g>
		<g>
			<path class="st2" d="M278.22,75.86c5.11,0.56,10.21,1.12,15.32,1.67c1.92,0.21,1.9-2.79,0-3c-5.11-0.56-10.21-1.12-15.32-1.67
				C276.3,72.65,276.32,75.66,278.22,75.86L278.22,75.86z"/>
		</g>
	</g>
	<g>
		<g>
			<path class="st2" d="M368.47,21.53c0.19,0.19,0.38,0.39,0.57,0.58c0.57,0.58,1.55,0.57,2.12,0c0.58-0.58,0.57-1.54,0-2.12
				c-0.19-0.19-0.38-0.39-0.57-0.58c-0.57-0.58-1.55-0.57-2.12,0C367.89,19.99,367.9,20.95,368.47,21.53L368.47,21.53z"/>
		</g>
	</g>
	<g>
		<g>
			<path class="st2" d="M388.84,21.72c10.44,1.06,20.9,1.74,31.39,1.94c5.24,0.1,10.49,0.09,15.73-0.03
				c2.55-0.06,6.32,0.7,8.29-1.29c0.5-0.5,0.53-1.21,0.23-1.82c-0.36-0.73-0.74-1.02-1.54-1.15c-0.6-0.1-1.41,0.05-1.69,0.69
				c-0.04,0.1-0.09,0.2-0.13,0.29c-0.79,1.75,1.8,3.27,2.59,1.51c0.04-0.1,0.09-0.2,0.13-0.29c-0.56,0.23-1.13,0.46-1.69,0.69
				c-0.08-0.08-0.17-0.15-0.25-0.23c0.08-0.61,0.16-1.21,0.23-1.82c-1.07,1.08-6.64,0.43-8.14,0.46c-1.97,0.03-3.93,0.05-5.9,0.06
				c-4.26,0.01-8.52-0.06-12.78-0.2c-8.85-0.29-17.67-0.92-26.48-1.81C386.92,18.52,386.93,21.53,388.84,21.72L388.84,21.72z"/>
		</g>
	</g>
	<g>
		<g>
			<path class="st2" d="M386.55,33.82c13.05,0.36,26.1,0.18,39.14-0.53c1.92-0.11,1.93-3.11,0-3c-13.04,0.71-26.08,0.89-39.14,0.53
				C384.62,30.77,384.62,33.77,386.55,33.82L386.55,33.82z"/>
		</g>
	</g>
	<g>
		<g>
			<path class="st2" d="M386.68,44.06c9.91,1.75,19.88,2.45,29.94,2.04c1.92-0.08,1.93-3.08,0-3c-9.8,0.4-19.48-0.23-29.14-1.93
				C385.59,40.83,384.78,43.73,386.68,44.06L386.68,44.06z"/>
		</g>
	</g>
	<g>
		<g>
			<path class="st2" d="M384.85,55.96c11.13,0.96,22.28,1.24,33.45,0.83c1.92-0.07,1.93-3.07,0-3c-11.17,0.41-22.32,0.14-33.45-0.83
				C382.93,52.79,382.94,55.79,384.85,55.96L384.85,55.96z"/>
		</g>
	</g>
	<g>
		<g>
			<path class="st2" d="M372.29,70.08c0.19-0.19,0.38-0.39,0.57-0.58c0.57-0.58,0.58-1.54,0-2.12c-0.57-0.57-1.55-0.58-2.12,0
				c-0.19,0.19-0.38,0.39-0.57,0.58c-0.57,0.58-0.58,1.54,0,2.12C370.74,70.66,371.72,70.66,372.29,70.08L372.29,70.08z"/>
		</g>
	</g>
	<g>
		<g>
			<path class="st2" d="M380.3,70.32c11.94,0.95,23.88,1.9,35.81,2.84c8.45,0.67,19.77,3.6,27.12-2.04
				c1.51-1.16,0.02-3.77-1.51-2.59c-4.07,3.13-8.8,2.91-13.67,2.58c-5.31-0.37-10.61-0.84-15.92-1.26
				c-10.61-0.84-21.22-1.69-31.83-2.53C378.38,67.17,378.39,70.17,380.3,70.32L380.3,70.32z"/>
		</g>
	</g>
	<g>
		<g>
			<path class="st2" d="M386.55,78.47c11.69,1.1,23.4,1.81,35.14,2.12c1.93,0.05,1.93-2.95,0-3c-11.74-0.31-23.45-1.02-35.14-2.12
				C384.63,75.28,384.64,78.29,386.55,78.47L386.55,78.47z"/>
		</g>
	</g>
	<g>
		<g>
			<path class="st2" d="M375.66,86.29c-0.06,0.06-0.16,0.15-0.03,0.05c-0.32,0.26,0.09-0.05-0.11,0.05
				c-0.21,0.11,0.19-0.04-0.03,0.02c-0.05,0.01-0.38-0.01-0.12,0.02c-0.1-0.01-0.2-0.04-0.29-0.07c0.15,0.05,0.04,0.02-0.04-0.03
				c-0.18-0.11-0.06-0.01-0.16-0.2c-0.93-1.69-3.52-0.18-2.59,1.51c1.08,1.97,3.92,2.34,5.49,0.76
				C379.14,87.04,377.02,84.92,375.66,86.29L375.66,86.29z"/>
		</g>
	</g>
	<g>
		<g>
			<path class="st2" d="M392.21,93.24c12.16,0.01,24.22-1.16,36.16-3.47c1.89-0.37,1.09-3.26-0.8-2.89
				c-11.68,2.26-23.47,3.37-35.37,3.36C390.28,90.24,390.28,93.24,392.21,93.24L392.21,93.24z"/>
		</g>
	</g>
	<g>
		<g>
			<path class="st2" d="M388.95,98.9c11.68,2.96,23.52,3.56,35.45,1.9c1.9-0.27,1.09-3.16-0.8-2.89
				c-11.37,1.58-22.74,0.91-33.86-1.9C387.88,95.53,387.08,98.42,388.95,98.9L388.95,98.9z"/>
		</g>
	</g>
	<g>
		<g>
			<path class="st2" d="M392.36,105.24c9.89,2.05,19.86,3.58,29.9,4.62c1.92,0.2,1.9-2.8,0-3c-9.78-1.01-19.47-2.52-29.1-4.51
				C391.27,101.96,390.47,104.85,392.36,105.24L392.36,105.24z"/>
		</g>
	</g>
	<g>
		<g>
			<path class="st2" d="M369.52,19.1c-1.37-0.01-2.41,1.18-2.47,2.5c-0.03,0.65,0.18,1.27,0.61,1.76c0.64,0.71,1.62,0.76,2.43,0.32
				c0.63-0.34,1.13-0.95,1.3-1.65c0.22-0.93-0.45-1.7-1.17-2.18c-1.11-0.73-2.58-0.75-3.72-0.09c-0.7,0.4-0.95,1.36-0.54,2.05
				c0.41,0.7,1.35,0.94,2.05,0.54c0.16-0.08,0.16-0.09,0.01-0.03c0.09-0.03,0.17-0.05,0.26-0.07c-0.38,0.07,0.39,0.1,0.02,0.01
				c0.09,0.02,0.18,0.04,0.27,0.07c-0.15-0.06-0.14-0.06,0.02,0.02c0.15,0.1,0.15,0.1,0.03,0.01c0.12,0.13,0.13,0.13,0.04,0.01
				c-0.05-0.39-0.1-0.77-0.15-1.16c0.05-0.18,0.26-0.24,0.42-0.25c0.25,0.07,0.5,0.14,0.76,0.2c0.23,0.17,0.33,0.3,0.37,0.58
				c-0.04-0.29-0.06,0.28,0.01-0.03c-0.08,0.17-0.09,0.21-0.04,0.11c0.06-0.1,0.03-0.07-0.08,0.09c0.12-0.11,0.1-0.1-0.06,0.05
				c-0.11,0.07-0.23,0.11-0.35,0.12c0.81,0.01,1.5-0.69,1.5-1.5C371.02,19.78,370.34,19.1,369.52,19.1L369.52,19.1z"/>
		</g>
	</g>
	<g>
		<g>
			<path class="st2" d="M368.58,65.9c-1.36,0.25-2.83,1.99-2.02,3.38c0.68,1.16,2.27,1.47,3.39,0.79c0.73-0.44,1.13-1.25,0.95-2.09
				c-0.14-0.66-0.7-1.18-1.33-1.38c-1.33-0.42-2.66,0.45-2.75,1.85c-0.05,0.78,0.72,1.53,1.5,1.5c0.85-0.04,1.45-0.66,1.5-1.5
				c-0.03,0.54-0.53,1.04-0.93,1.04c0.07,0-0.23-0.04-0.3-0.07c-0.36-0.15-0.62-0.58-0.64-0.96c0.07-0.25,0.14-0.5,0.2-0.76
				c-0.12,0.23,0.12-0.13,0.18-0.17c0.07-0.05,0.43-0.09,0.3-0.1c-0.08,0-0.07,0,0.04,0.01c0.09,0,0.18,0.03,0.26,0.09
				c-0.23-0.11,0.13,0.1,0.17,0.18c0.05,0.39,0.1,0.77,0.15,1.16c0.05-0.24-0.03-0.02-0.03-0.02c0.02-0.04,0.04-0.08,0.07-0.12
				c-0.09,0.11-0.1,0.12-0.03,0.05c0.18-0.07-0.11,0.04-0.11,0.05c-0.08,0.03-0.08,0.03,0,0c0.06-0.02,0.13-0.04,0.19-0.04
				c0.8-0.15,1.25-1.11,1.05-1.85C370.19,66.12,369.37,65.76,368.58,65.9L368.58,65.9z"/>
		</g>
	</g>
	<g>
		<g>
			<path class="st2" d="M370.91,85.96c-0.64,1.73,1.34,3.25,2.93,2.84c0.44-0.12,0.81-0.38,1.08-0.73c0.4-0.52,0.44-1.07,0.33-1.7
				c-0.15-0.9-0.62-1.72-1.26-2.37c-0.49-0.5-1.22-0.53-1.82-0.23c-1.54,0.78-2,2.78-1.21,4.24c0.33,0.61,1.05,0.82,1.69,0.69
				c0.89-0.18,1.67-0.79,2.1-1.58c0.39-0.71,0.17-1.64-0.54-2.05c-0.69-0.4-1.66-0.17-2.05,0.54c-0.09,0.15-0.09,0.16,0,0.05
				c-0.13,0.12-0.13,0.13-0.01,0.05c-0.16,0.08-0.16,0.1-0.02,0.04c-0.09,0.03-0.18,0.05-0.27,0.07c0.56,0.23,1.13,0.46,1.69,0.69
				c-0.08-0.15-0.08-0.14,0.01,0.02c-0.04-0.17-0.04-0.16,0,0.04c0.01-0.17,0-0.16-0.02,0.03c0.01-0.06,0.03-0.12,0.05-0.18
				c0.03-0.1,0.02-0.08-0.04,0.07c0.09-0.14,0.08-0.14-0.03,0c0.12-0.12,0.11-0.12-0.04-0.01c0.07-0.05,0.14-0.09,0.21-0.12
				c-0.61-0.08-1.21-0.16-1.82-0.23c0.01,0.01,0.28,0.34,0.16,0.18c0.07,0.11,0.14,0.22,0.19,0.34c0.09,0.2-0.03-0.24,0.05,0.15
				c0.01,0.05,0.08,0.47,0.05,0.22c0.07-0.25,0.14-0.5,0.2-0.76c-0.07,0.15-0.04,0.12,0.09-0.08c0.2-0.2,0.43-0.3,0.69-0.29
				c-0.16,0-0.11,0.01,0.14,0.04c-0.15-0.04-0.12-0.02,0.1,0.06c-0.33-0.15,0.04,0.03,0.14,0.2c0.07,0.14,0.11,0.29,0.1,0.45
				c-0.05,0.25-0.05,0.3,0,0.14c0.27-0.74-0.31-1.68-1.05-1.85C371.91,84.72,371.2,85.17,370.91,85.96L370.91,85.96z"/>
		</g>
	</g>
	<g>
		<g>
			<path class="st2" d="M262.97,61.58c-0.35,0.37-0.71,0.73-1.05,1.12c-0.53,0.6-0.61,1.29-0.3,2.01c0.44,1.01,1.55,1.61,2.63,1.47
				c1.25-0.17,1.94-1.21,1.96-2.42c0.02-1.13-0.56-2.07-1.44-2.73c-0.43-0.33-1.07-0.22-1.51,0c-0.92,0.46-1.76,1.23-1.79,2.32
				c-0.03,1.05,0.65,2.09,1.74,2.24c1.14,0.15,2.11-0.71,2.11-1.86c0-0.49-0.17-1-0.51-1.36c-0.47-0.49-1.06-0.57-1.71-0.47
				c-0.8,0.13-1.24,1.13-1.05,1.85c0.23,0.85,1.04,1.17,1.85,1.05c0.03,0,0.05-0.01,0.08-0.01c-0.27,0-0.53,0-0.8,0
				c-0.54-0.22-0.82-0.58-0.86-1.06c0.08-0.96,0.77-1.16,2.06-0.61c0.07,0.17,0.1,0.33,0.05,0.51c0,0-0.1,0.31-0.17,0.27
				c0.02,0.01,0.46-0.26,0.51-0.29c-0.5,0-1.01,0-1.51,0c-0.12-0.09-0.14-0.1-0.07-0.03c0.07,0.08,0.06,0.06-0.04-0.05
				c0.07,0.13,0.08,0.15,0.04,0.05c-0.04-0.1-0.04-0.08,0.01,0.06c0.01,0.04,0.02,0.08,0.03,0.13c-0.02-0.17-0.03-0.19-0.02-0.08
				c0,0.11,0.01,0.09,0.03-0.08c-0.01,0.06-0.03,0.13-0.05,0.19c-0.22,0.24,0.33-0.5,0.56-0.56c0.07-0.02,0.53,0.02,0.28-0.03
				c0.05,0.02,0.11,0.05,0.16,0.07c-0.14-0.09-0.12-0.07,0.05,0.05c0.11,0.17,0.16,0.28,0.18,0.49c-0.15,0.35-0.29,0.71-0.44,1.06
				c0.37-0.39,0.74-0.79,1.11-1.18c0.55-0.59,0.59-1.54,0-2.12C264.53,61.02,263.53,60.99,262.97,61.58L262.97,61.58z"/>
		</g>
	</g>
</g>
</svg>
