<?xml version="1.0" encoding="utf-8"?>
<!-- Generator: Adobe Illustrator 23.0.2, SVG Export Plug-In . SVG Version: 6.00 Build 0)  -->
<svg version="1.1" xmlns="http://www.w3.org/2000/svg" xmlns:xlink="http://www.w3.org/1999/xlink" x="0px" y="0px"
	 viewBox="0 0 960 560" style="enable-background:new 0 0 960 560;" xml:space="preserve">
<style type="text/css">
	.st0{fill:#99CCCC;stroke:#99CCCC;stroke-width:8;stroke-miterlimit:10;}
	.st1{fill:#336666;stroke:#006666;stroke-miterlimit:10;}
	.st2{fill:#CCCCCC;stroke:#006666;stroke-miterlimit:10;}
	.st3{fill:#E9F4F4;stroke:#006666;stroke-miterlimit:10;}
	.st4{fill:#009999;stroke:#006666;stroke-miterlimit:10;}
	.st5{fill:#99CCCC;}
	.st6{fill:#CFF2FF;stroke:#336666;stroke-width:2;stroke-miterlimit:10;}
	.st7{fill:url(#SVGID_1_);stroke:#006666;stroke-width:2;stroke-miterlimit:10;}
	.st8{fill:none;stroke:#006666;stroke-width:2;stroke-miterlimit:10;}
	.st9{fill:#66CCCC;stroke:#006666;stroke-width:2;stroke-miterlimit:10;}
	.st10{fill:url(#SVGID_2_);stroke:#006666;stroke-width:2;stroke-miterlimit:10;}
	.st11{fill:#CCFFFF;}
	.st12{font-family:'MyriadPro-Bold';}
	.st13{font-size:65.2768px;}
</style>
<g id="Layer_2">
</g>
<g id="Layer_1_copy">
	<g>
		<path class="st0" d="M956.42,208.35c0.36-10.58-5.48-19.36-13.05-19.61l-313.8,4.35c-7.56-0.26-13.99,8.11-14.34,18.69
			l-7.85,231.91c-0.14,4.24,0.72,8.19,2.29,11.42c-4.79,1.12-9.45,2.4-13.58,3.72L446.6,496.74c-8.56,3.2-9.22,4.64-8.61,6.42
			c1.96,9.62,12.07,15.58,27.77,15.79l294.62,38.36c11.2,0.38,29.48-2.87,40.84-7.26l135.15-74.92c4.52-2.68,6.64-4.96,7.62-6.81
			c0.18-0.33,0.34-0.64,0.47-0.94c2.1-3.26,3.44-7.49,3.6-12.16L956.42,208.35z"/>
		<g>
			<path class="st1" d="M933.72,473.9l-313.3-10.6c-7.56-0.26-13.41-9.04-13.05-19.61l7.85-231.91
				c0.36-10.58,6.78-18.94,14.34-18.69l313.8-4.35c7.56,0.26,13.41,9.04,13.05,19.61l-8.36,246.87
				C947.71,465.79,941.29,474.16,933.72,473.9z"/>
			<path class="st1" d="M943.99,468.31c2.36-4.16,0.75-6.34-9.29-6.68l-297.78-10.08c-11.2-0.38-28.38,3.28-40.84,7.26L446.6,496.74
				c-8.56,3.2-9.22,4.64-8.61,6.42c1.96,9.62,12.07,15.58,27.77,15.79l294.62,38.36c11.2,0.38,29.48-2.87,40.84-7.26l135.15-74.92
				C940.9,472.45,943.02,470.17,943.99,468.31z"/>
			<path class="st2" d="M924.85,458.09l-294.5-9.97c-7.11-0.24-12.62-8.05-12.3-17.43l6.97-205.86c0.32-9.39,6.34-16.8,13.45-16.56
				l294.95-3.3c7.11,0.24,12.62,8.05,12.3,17.43l-7.42,219.13C937.98,450.92,931.96,458.34,924.85,458.09z"/>
			<polygon class="st3" points="636,216.82 627.44,446.42 921.91,457.46 929.39,212.85 			"/>
			<polygon class="st4" points="636,216.82 634.81,252.07 927.16,255.55 929.39,212.85 			"/>
			<polygon class="st5" points="635.04,252.02 627.42,447.17 699.67,449.4 706.1,252.88 			"/>
			<polygon class="st4" points="910.25,358.16 772.47,353.5 775.32,269.36 913.23,270.05 			"/>
			<polygon class="st5" points="764.68,291.75 714.98,289 715.41,276.18 765.19,276.8 			"/>
			<polygon class="st5" points="763.51,314.7 713.81,311.95 714.24,299.13 764.02,299.75 			"/>
			<polygon class="st5" points="762.71,338.2 713.01,335.44 713.44,322.63 763.22,323.24 			"/>
			<polygon class="st5" points="756.39,361.51 711.42,358.91 711.86,346.1 756.9,346.55 			"/>
			<polygon class="st5" points="908.59,395.53 709.73,385.59 710.27,369.57 909.17,378.44 			"/>
			<polygon class="st5" points="907.59,425.53 708.73,415.59 709.27,399.57 908.17,408.44 			"/>
		</g>
		<path class="st6" d="M7,207.15c0-14.14,1.03-27.76,6.55-40.57c23.58-54.72,93.6-94.41,176.32-94.41c4.43,0,8.83,0.12,13.18,0.35
			C230.7,33.66,287.56,7,353.23,7c92.82,0,168.06,53.25,168.06,118.93c0,5.26-0.49,10.43-1.42,15.51
			c47.85,15.5,81.14,49.93,81.14,89.92c0,23.87-11.86,45.75-31.59,62.82C551.42,308.42,528.3,317,503.07,317H394.26h-96.97H117.35
			l-22-2.23c-29.79-11.36-53.92-28.33-69.38-49.7c0,0,0-0.01,0-0.01c0,0,0,0.01,0,0.01C13.81,248.28,7,228.78,7,207.15z"/>
		<g>
			<linearGradient id="SVGID_1_" gradientUnits="userSpaceOnUse" x1="146" y1="180.5" x2="334" y2="180.5">
				<stop  offset="3.386119e-03" style="stop-color:#00FFFF"/>
				<stop  offset="0.7958" style="stop-color:#336666"/>
			</linearGradient>
			<path class="st7" d="M240,90.5c-51.91,0-94,11.01-94,24.59v130.83c0,13.58,42.09,24.59,94,24.59s94-11.01,94-24.59V115.09
				C334,101.51,291.91,90.5,240,90.5z"/>
			<path class="st8" d="M146,214.3"/>
			<path class="st8" d="M334,214.3"/>
			<path class="st8" d="M146,181.82"/>
			<path class="st8" d="M334,181.82"/>
			<path class="st8" d="M146,149.33"/>
			<path class="st8" d="M334,149.33"/>
			<line class="st8" x1="334" y1="113.33" x2="334" y2="246.79"/>
			<line class="st8" x1="146" y1="246.79" x2="146" y2="113.33"/>
			<ellipse class="st9" cx="240" cy="115.09" rx="94" ry="24.59"/>
			<path class="st8" d="M334,245.91c0,13.58-42.09,24.59-94,24.59s-94-11.01-94-24.59"/>
			<path class="st8" d="M334,214.3c0,13.58-42.09,24.59-94,24.59s-94-11.01-94-24.59"/>
			<path class="st8" d="M334,181.82c0,13.58-42.09,24.59-94,24.59s-94-11.01-94-24.59"/>
			<path class="st8" d="M334,149.33c0,13.58-42.09,24.59-94,24.59s-94-11.01-94-24.59"/>
			<path class="st8" d="M334,215.18c0,13.58-42.09,24.59-94,24.59s-94-11.01-94-24.59"/>
			<path class="st8" d="M334,182.7c0,13.58-42.09,24.59-94,24.59s-94-11.01-94-24.59"/>
			<path class="st8" d="M334,150.21c0,13.58-42.09,24.59-94,24.59s-94-11.01-94-24.59"/>
		</g>
		<g>
			<linearGradient id="SVGID_2_" gradientUnits="userSpaceOnUse" x1="300" y1="209.5" x2="488" y2="209.5">
				<stop  offset="3.386119e-03" style="stop-color:#00FFFF"/>
				<stop  offset="0.7958" style="stop-color:#336666"/>
			</linearGradient>
			<path class="st10" d="M394,119.5c-51.91,0-94,11.01-94,24.59v130.83c0,13.58,42.09,24.59,94,24.59s94-11.01,94-24.59V144.09
				C488,130.51,445.91,119.5,394,119.5z"/>
			<path class="st8" d="M300,243.3"/>
			<path class="st8" d="M488,243.3"/>
			<path class="st8" d="M300,210.82"/>
			<path class="st8" d="M488,210.82"/>
			<path class="st8" d="M300,178.33"/>
			<path class="st8" d="M488,178.33"/>
			<line class="st8" x1="488" y1="142.33" x2="488" y2="275.79"/>
			<line class="st8" x1="300" y1="275.79" x2="300" y2="142.33"/>
			<ellipse class="st9" cx="394" cy="144.09" rx="94" ry="24.59"/>
			<path class="st8" d="M488,274.91c0,13.58-42.09,24.59-94,24.59s-94-11.01-94-24.59"/>
			<path class="st8" d="M488,243.3c0,13.58-42.09,24.59-94,24.59s-94-11.01-94-24.59"/>
			<path class="st8" d="M488,210.82c0,13.58-42.09,24.59-94,24.59s-94-11.01-94-24.59"/>
			<path class="st8" d="M488,178.33c0,13.58-42.09,24.59-94,24.59s-94-11.01-94-24.59"/>
			<path class="st8" d="M488,244.18c0,13.58-42.09,24.59-94,24.59s-94-11.01-94-24.59"/>
			<path class="st8" d="M488,211.7c0,13.58-42.09,24.59-94,24.59s-94-11.01-94-24.59"/>
			<path class="st8" d="M488,179.21c0,13.58-42.09,24.59-94,24.59s-94-11.01-94-24.59"/>
		</g>
		<text transform="matrix(0.923 0 0 1 44 386.8506)"><tspan x="0" y="0" class="st11 st12 st13">1001101001101001</tspan><tspan x="0" y="65.28" class="st11 st12 st13">1001101001101001</tspan><tspan x="0" y="130.55" class="st11 st12 st13">1001101001101001</tspan></text>
	</g>
</g>
</svg>
