<?xml version="1.0" encoding="utf-8"?>
<!-- Generator: Adobe Illustrator 23.0.2, SVG Export Plug-In . SVG Version: 6.00 Build 0)  -->
<svg version="1.1" id="Layer_1" xmlns="http://www.w3.org/2000/svg" xmlns:xlink="http://www.w3.org/1999/xlink" x="0px" y="0px"
	 viewBox="0 0 480 280" style="enable-background:new 0 0 480 280;" xml:space="preserve">
<style type="text/css">
	.st0{fill:#CCCCCC;stroke:#336666;stroke-width:3;stroke-miterlimit:10;}
	.st1{fill:none;stroke:#336666;stroke-width:8;stroke-miterlimit:10;}
	.st2{fill:none;stroke:#336666;stroke-width:3;stroke-miterlimit:10;}
	.st3{fill:none;stroke:#336666;stroke-miterlimit:10;}
	.st4{fill:#336666;stroke:#336666;stroke-width:3;stroke-miterlimit:10;}
	.st5{fill:#CCCCCC;stroke:#336666;stroke-width:8;stroke-miterlimit:10;}
	.st6{fill:#CCCCCC;stroke:#336666;stroke-miterlimit:10;}
	.st7{fill:#FFFFFF;stroke:#336666;stroke-width:3;stroke-miterlimit:10;}
	.st8{fill:#D6E5E5;stroke:#666666;stroke-width:2;stroke-miterlimit:10;}
	.st9{fill:none;stroke:#666666;stroke-width:3;stroke-miterlimit:10;}
	.st10{fill:none;stroke:#666666;stroke-width:2;stroke-miterlimit:10;}
	.st11{fill:#FFFFCC;stroke:#006666;stroke-miterlimit:10;}
	.st12{fill:#006666;stroke:#006666;stroke-width:2;stroke-miterlimit:10;}
	.st13{fill:#669999;stroke:#006666;stroke-width:2;stroke-miterlimit:10;}
	.st14{fill:#FF9900;}
	.st15{fill:none;}
	.st16{font-family:'CooperBlackStd';}
	.st17{font-size:45.4278px;}
	.st18{fill:#FFFFFF;}
	.st19{font-size:45.4268px;}
	.st20{fill:none;stroke:#000000;stroke-miterlimit:10;}
	.st21{fill:#FFFFCC;stroke:#006666;stroke-width:4;stroke-miterlimit:10;}
</style>
<g>
	<path class="st0" d="M472.35,165.5c1.31-31.16-2.05-68.25-2.41-69.4c-1.79-5.75-5.62-10.9-10.09-14.61c-0.94-0.78-3.89-2.41-6.9-4
		l-44.81-37.88l-0.18,0.16c-0.28-0.25-0.56-0.5-0.84-0.74c-2.03-1.73-13.99-7.8-13.99-7.8C379.24,22.85,290.46,1.16,275.87,6.68
		c-37.34,14.12-67.43,49.07-74.83,92.27c-5.43,31.66,2.41,61.44,19.3,83.36c4.8,6.23-3.98,23.02-0.99,27.03l-0.38,0.35l44.26,42.93
		l0.57-0.46c0.13,1.23,0.56,2.12,1.47,2.52c4.36,1.89,49.05,6.51,67.56,8.37c0,0,109.71,12.96,115.08,11.73
		c5.36-1.24,9.87-10.83,11.63-17.75C461.28,250.1,470.42,211.65,472.35,165.5z"/>
	<path class="st0" d="M471.24,163.81c1.31-31.16-2.05-68.25-2.41-69.4c-1.79-5.75-5.62-10.9-10.09-14.61c-0.94-0.78-3.89-2.41-6.9-4
		l-44.81-37.88l-0.18,0.16c-0.28-0.25-0.56-0.5-0.84-0.74c-2.03-1.73-13.99-7.8-13.99-7.8C378.12,21.16,289.34-0.53,274.75,4.99
		c-37.34,14.12-67.43,49.07-74.83,92.27c-5.43,31.66,2.41,61.44,19.3,83.36c4.8,6.23-3.98,23.02-0.99,27.03l-0.38,0.35l44.26,42.93
		l0.57-0.46c0.13,1.23,0.56,2.12,1.47,2.52c4.36,1.89,49.05,6.51,67.56,8.37c0,0,109.71,12.96,115.08,11.73
		c5.36-1.24,9.87-10.83,11.63-17.75C460.17,248.41,469.3,209.96,471.24,163.81z"/>
	
		<ellipse transform="matrix(0.6079 -0.794 0.794 0.6079 17.2675 346.307)" class="st1" cx="359.26" cy="155.67" rx="74.19" ry="68.4"/>
	
		<ellipse transform="matrix(0.6079 -0.794 0.794 0.6079 17.2675 346.307)" class="st2" cx="359.26" cy="155.67" rx="68.25" ry="62.93"/>
	<path class="st2" d="M293.31,207.9c-5.9-8.12-10.19-17.52-12.52-27.71c-2.33-10.19-2.7-21.17-0.77-32.47s6-21.83,11.69-31.22
		s13-17.62,21.44-24.3c8.44-6.68,18-11.82,28.2-15.01"/>
	<path class="st2" d="M437.74,131.15c2.33,10.19,2.7,21.17,0.77,32.47c-1.94,11.3-6,21.83-11.69,31.22
		c-5.69,9.39-13,17.62-21.44,24.3s-18,11.82-28.2,15.01c-10.19,3.19-21.01,4.43-31.95,3.33"/>
	<path class="st2" d="M376.49,55.2"/>
	<path class="st3" d="M305.51,244.45c-10.77-6.25-20-14.66-27.24-24.64s-12.52-21.51-15.38-34.03c-2.86-12.51-3.32-26-0.94-39.88
		s7.37-26.81,14.35-38.34"/>
	<path class="st3" d="M442.23,203.77c-6.99,11.53-15.97,21.64-26.33,29.84s-22.11,14.51-34.63,18.43"/>
	<path class="st4" d="M235.83,206.93c0,0,4.46,7.08,12.51,15.94c8.05,8.86,16.4,14.07,16.4,14.07L50.13,213.81
		c0,0-9.16,0.03-12.73-6.87c-3.57-6.9-4.78-24.8-4.78-24.8L235.83,206.93z"/>
	<path class="st2" d="M83.91,207.42c-6.89-7.6-9.37-14.59-7.49-20.94"/>
	<path class="st2" d="M113.49,210.57c-7.2-6.43-10.1-12.87-8.73-19.32"/>
	<path class="st2" d="M144.79,214.62c-7.42-6.09-10.52-12.39-9.34-18.86"/>
	<path class="st2" d="M187.04,219.74c-11.25-5.47-16.75-12.26-16.55-20.31"/>
	<path class="st2" d="M212.27,217.79c-8.36-4.15-12.43-9.17-12.23-15.04"/>
	
		<ellipse transform="matrix(0.6079 -0.794 0.794 0.6079 17.2675 346.307)" class="st5" cx="359.26" cy="155.67" rx="74.19" ry="68.4"/>
	
		<ellipse transform="matrix(0.6079 -0.794 0.794 0.6079 17.2675 346.307)" class="st0" cx="359.26" cy="155.67" rx="68.25" ry="62.93"/>
	<path class="st0" d="M293.31,207.9c-5.9-8.12-10.19-17.52-12.52-27.71c-2.33-10.19-2.7-21.17-0.77-32.47s6-21.83,11.69-31.22
		s13-17.62,21.44-24.3c8.44-6.68,18-11.82,28.2-15.01"/>
	<path class="st0" d="M437.74,131.15c2.33,10.19,2.7,21.17,0.77,32.47c-1.94,11.3-6,21.83-11.69,31.22
		c-5.69,9.39-13,17.62-21.44,24.3s-18,11.82-28.2,15.01c-10.19,3.19-21.01,4.43-31.95,3.33"/>
	<path class="st0" d="M376.49,55.2"/>
	<path class="st6" d="M305.51,244.45c-10.77-6.25-20-14.66-27.24-24.64s-12.52-21.51-15.38-34.03c-2.86-12.51-3.32-26-0.94-39.88
		s7.37-26.81,14.35-38.34"/>
	<path class="st6" d="M442.23,203.77c-6.99,11.53-15.97,21.64-26.33,29.84s-22.11,14.51-34.63,18.43"/>
	<path class="st0" d="M334.16,266.19c-18.51-1.86-63.2-6.48-67.56-8.37c-5.33-2.31,5.45-21.34,0.05-28.12
		c-17.77-22.33-26.11-52.61-20.6-84.77c7.52-43.89,38.8-79.31,77.76-93.55c15.23-5.57,108.14,16.74,122.71,25.29
		c0,0,12.53,6.21,14.66,7.97c4.47,3.7,8.3,8.86,10.09,14.61c0.36,1.15,3.72,38.24,2.41,69.4c-1.94,46.15-11.07,84.6-12.83,91.51
		s-6.27,16.51-11.63,17.75S334.16,266.19,334.16,266.19z"/>
	
		<ellipse transform="matrix(0.9436 -0.3311 0.3311 0.9436 -31.3995 129.0477)" class="st1" cx="363.02" cy="156.67" rx="78.38" ry="71.32"/>
	
		<ellipse transform="matrix(0.9436 -0.3311 0.3311 0.9436 -31.3995 129.0477)" class="st2" cx="363.02" cy="156.67" rx="72.11" ry="65.61"/>
	<path class="st2" d="M290.96,208.28c-6.58-8.19-11.39-17.64-14.06-27.86s-3.19-21.22-1.17-32.51c2.02-11.29,6.38-21.8,12.55-31.13
		c6.17-9.34,14.13-17.5,23.35-24.11c9.22-6.6,19.7-11.65,30.88-14.73"/>
	<path class="st2" d="M449.15,132.93c2.67,10.22,3.19,21.22,1.17,32.51c-2.02,11.29-6.38,21.8-12.55,31.13s-14.13,17.5-23.35,24.11
		s-19.7,11.65-30.88,14.73c-11.18,3.09-23.08,4.22-35.13,3.01"/>
	<path class="st2" d="M370.34,55.2"/>
	<path class="st3" d="M304.76,244.99c-11.92-6.37-22.15-14.88-30.23-24.94c-8.08-10.06-13.99-21.66-17.27-34.22
		c-3.28-12.56-3.92-26.06-1.44-39.93c2.48-13.86,7.84-26.77,15.41-38.23"/>
	<path class="st3" d="M451.11,204.5c-7.73,11.45-17.74,21.46-29.33,29.54s-24.76,14.24-38.83,18"/>
	<path class="st2" d="M334.16,266.19c-18.51-1.86-63.2-6.48-67.56-8.37c-5.33-2.31,5.45-21.34,0.05-28.12
		c-17.77-22.33-26.11-52.61-20.6-84.77c7.52-43.89,38.8-79.31,77.76-93.55c15.23-5.57,108.14,16.74,122.71,25.29
		c0,0,12.53,6.21,14.66,7.97c4.47,3.7,8.3,8.86,10.09,14.61c0.52,1.67,3.7,38.8,2.41,69.4c-1.94,46.15-11.07,84.6-12.83,91.51
		s-6.27,16.51-11.63,17.75S334.16,266.19,334.16,266.19z"/>
	<path class="st7" d="M229.68,206.37c0,0,0.54,11.59,8.6,20.45c8.05,8.86,20.31,9.56,20.31,9.56L43.98,212.12
		c0,0-9.16,1.15-12.73-5.74c-3.57-6.9-4.78-23.67-4.78-23.67L229.68,206.37z"/>
	<path class="st2" d="M77.75,207.42c-6.89-7.6-9.37-14.59-7.49-20.94"/>
	<path class="st2" d="M107.34,210.57c-7.2-6.43-10.1-12.87-8.73-19.32"/>
	<path class="st2" d="M138.64,214.62c-7.42-6.09-10.52-12.39-9.34-18.86"/>
	<path class="st2" d="M180.89,219.74c-11.25-5.47-16.75-12.26-16.55-20.31"/>
	<path class="st2" d="M206.12,217.79c-8.36-4.15-12.43-9.17-12.23-15.04"/>
	<path class="st4" d="M414.6,51.34l-37.15-26.93c-1.56-1.33-3.87-2.84-6.66-3.32c-4.79-0.83-7.53,0.68-8.19,3.29
		c-0.14,0.57,0.28,2.28,1.31,2.79l35.32,29.34l0.88,0.53c3.95,2.6,18.65,4.95,19.32,2.39C420.05,57.03,418.09,53.78,414.6,51.34z"/>
	<path class="st4" d="M378.34,43.97l-34.9-28.67c-1.43-1.38-3.56-3.15-6.3-3.78c-4.13-0.95-7.24,0.87-8,2.94
		c-0.18,0.49,0.11,2.11,1.08,2.69l31.98,29.99l0.82,0.58c3.67,2.81,18.55,6.28,19.41,4.07C383.24,49.74,381.57,46.59,378.34,43.97z"
		/>
	<path class="st4" d="M346.56,39.07L309.64,9.31c-1.53-1.42-4.12-3.81-7.76-4.8c-4.68-1.27-8.39-0.07-9.35,2.38
		c-0.18,0.45,0.62,2.66,1.66,3.3l34.19,32.03l0.89,0.62c3.94,2.97,20.73,5.99,21.66,3.98C351.22,46.18,350.34,42.07,346.56,39.07z"
		/>
	<path class="st0" d="M18.09,239.41l-6.3,5.85c0,0-7.94-8.08-7.79-11.48c0.16-3.74,2.08-10.87,3.62-16.7
		c2.16-8.2,6.35-21.26,9.5-29.5c2.3-6.03,11.66-8.25,14.85-7.12c3.29,1.17,6.69,4.47,12.29,7.35c4.83,2.49,19.75,2.61,23.03,7.86
		c1.15,1.85-8.83,2.95-13.24,3.29c-2.51,0.2,2.39,5.07,2.49,7.13c0.17,3.68-4.55,4.15-7.44,5.18c-7.44,2.63-9.23,25.32-11.23,34.13
		c-1.86,8.15-3.62,20.65-8.46,19.66c-2.81-0.57-10.7-11.1-12.58-14.58L18.09,239.41z"/>
	<path class="st8" d="M254.21,29.82c0.66,0.56,28.07,25.9,28.63,27.03c0.56,1.13,0.56,3.38-0.56,5.07
		c-1.12,1.69-9.62,9.48-13.42,14.08c-5.59,6.76-18.5,22.89-22.93,34.35c-3.92,10.14-7.83,24.21-8.39,32.1
		c-0.24,3.37-2.24,28.72-2.8,29.84s0,4.5-3.36,3.94c-1.23-0.21-22.93-27.59-24.05-29.84c-1.12-2.25-5.59-12.39-7.83-22.52
		c-2.38-10.8-4.48-25.36-5.03-31.53c-0.56-6.19,1.12-14.08,7.27-20.83c3.38-3.71,16.16-16.27,19.02-19.14
		c2.8-2.82,15.1-13.51,20.69-17.46c4.72-3.32,8.74-5.63,9.97-5.63C252.63,29.26,253.55,29.26,254.21,29.82z"/>
	<line class="st9" x1="198.97" y1="86.82" x2="219.05" y2="106.78"/>
	<line class="st9" x1="197.79" y1="95.89" x2="217.99" y2="114.73"/>
	<line class="st9" x1="199.33" y1="105.92" x2="219.57" y2="125.71"/>
	<line class="st10" x1="201.97" y1="116.22" x2="221.52" y2="136.68"/>
	<line class="st10" x1="204.42" y1="126.57" x2="223.55" y2="148.48"/>
	<line class="st10" x1="206.96" y1="136.41" x2="225.48" y2="158.91"/>
	<line class="st9" x1="203.42" y1="78.73" x2="222.43" y2="98.72"/>
	<line class="st9" x1="209.69" y1="72.36" x2="228.58" y2="92.33"/>
	<line class="st9" x1="215.96" y1="64.73" x2="233.9" y2="84.16"/>
	<line class="st9" x1="224.23" y1="57.97" x2="240.61" y2="76.27"/>
	<line class="st9" x1="230.38" y1="51.78" x2="246.76" y2="69.08"/>
	<line class="st9" x1="237.09" y1="46.15" x2="253.15" y2="61.58"/>
	<path class="st10" d="M266.06,59.1c0,0-31.32,33.22-34.68,37.73s-8.95,12.39-8.95,16.89s1.12,21.4,2.24,24.78
		c1.12,3.38,3.36,21.96,3.36,21.96"/>
	<g>
		<g>
			<path class="st11" d="M406.99,186.75l-95.16-14.94c-8.33-1.31-13.71-11.2-12.02-22.1l2.37-15.31
				c1.69-10.9,9.81-18.67,18.14-17.37l95.18,14.94c8.33,1.31,13.71,11.2,12.02,22.1l-2.37,15.31
				C423.44,180.28,415.32,188.05,406.99,186.75z"/>
			<path class="st12" d="M301.83,151.38c-1.52,9.81,4.32,18.87,13.05,20.24l89.88,14.11c8.73,1.37,17.03-5.46,18.55-15.28l1.38-8.94
				l-121.49-19.07L301.83,151.38z"/>
			<polygon class="st13" points="433.62,159.56 422.26,157.78 420.84,143.7 415.23,156.68 406.39,155.29 403.85,154.89 
				395.02,153.5 393.6,139.43 387.99,152.4 378.83,150.96 376.61,150.61 367.46,149.18 366.04,135.1 360.42,148.07 351.6,146.69 
				349.06,146.29 340.22,144.9 338.8,130.82 333.19,143.8 324.37,142.41 321.83,142.01 312.99,140.63 311.25,126.5 305.96,139.52 
				294.58,137.73 302.5,147.54 296.88,160.53 307.38,153.61 315.29,163.42 313.87,149.33 322.92,143.38 329.73,151.82 
				324.12,164.81 334.61,157.89 342.53,167.7 341.11,153.61 350.15,147.66 356.96,156.1 351.35,169.08 361.84,162.17 369.76,171.97 
				368.34,157.88 377.57,151.8 384.52,160.42 378.9,173.41 389.41,166.49 397.31,176.3 395.89,162.21 404.94,156.26 411.75,164.7 
				406.14,177.69 416.64,170.77 424.55,180.58 423.13,166.48 			"/>
			<g>
				<polygon class="st14" points="420.84,143.7 422.26,157.78 433.62,159.56 423.13,166.48 424.55,180.58 416.64,170.77 
					406.14,177.69 411.75,164.7 403.85,154.89 415.23,156.68 				"/>
				<polygon class="st14" points="393.6,139.43 395.02,153.5 406.39,155.29 395.89,162.21 397.31,176.3 389.41,166.49 378.9,173.41 
					384.52,160.42 376.61,150.61 387.99,152.4 				"/>
				<polygon class="st14" points="311.25,126.5 312.99,140.63 324.37,142.41 313.87,149.33 315.29,163.42 307.38,153.61 
					296.88,160.53 302.5,147.54 294.58,137.73 305.96,139.52 				"/>
				<polygon class="st14" points="338.8,130.82 340.22,144.9 351.6,146.69 341.11,153.61 342.53,167.7 334.61,157.89 324.12,164.81 
					329.73,151.82 321.83,142.01 333.19,143.8 				"/>
				<polygon class="st14" points="366.04,135.1 367.46,149.18 378.83,150.96 368.34,157.88 369.76,171.97 361.84,162.17 
					351.35,169.08 356.96,156.1 349.06,146.29 360.42,148.07 				"/>
			</g>
			<polygon class="st15" points="401.87,190.76 310.94,176.4 318.68,128.02 409.62,142.39 			"/>
			<text transform="matrix(0.7309 0.1159 -0.1539 0.9881 324.3598 161.1579)" class="st16 st17">5</text>
			<text transform="matrix(0.7309 0.1159 -0.1539 0.9881 345.605 164.527)" class="st16 st17">-</text>
			<text transform="matrix(0.7309 0.1159 -0.1539 0.9881 356.204 166.2079)" class="st16 st17">5s</text>
			<polygon class="st15" points="322.02,126.99 412.06,141.13 405.12,185.93 315.08,171.79 			"/>
			<text transform="matrix(0.7335 0.0988 -0.1415 0.9899 327.4966 159.861)" class="st18 st16 st19">5</text>
			<text transform="matrix(0.7335 0.0988 -0.1415 0.9899 327.4966 159.861)" class="st20 st16 st19">5</text>
			<text transform="matrix(0.7335 0.0988 -0.1415 0.9899 348.8188 162.7319)" class="st18 st16 st19">-</text>
			<text transform="matrix(0.7335 0.0988 -0.1415 0.9899 348.8188 162.7319)" class="st20 st16 st19">-</text>
			<text transform="matrix(0.7335 0.0988 -0.1415 0.9899 359.4543 164.164)" class="st18 st16 st19">5s</text>
			<text transform="matrix(0.7335 0.0988 -0.1415 0.9899 359.4543 164.164)" class="st20 st16 st19">5s</text>
		</g>
		<path class="st21" d="M406.99,186.75l-95.16-14.94c-8.33-1.31-13.71-11.2-12.02-22.1l2.37-15.31c1.69-10.9,9.81-18.67,18.14-17.37
			l95.18,14.94c8.33,1.31,13.71,11.2,12.02,22.1l-2.37,15.31C423.44,180.28,415.32,188.05,406.99,186.75z"/>
		<path class="st12" d="M300.36,151.15c-1.52,9.81,4.45,18.89,13.34,20.28l91.54,14.37c8.89,1.4,17.33-5.42,18.85-15.23l1.38-8.94
			l-123.73-19.43L300.36,151.15z"/>
		<polygon class="st13" points="433.62,159.56 422.26,157.78 420.84,143.7 415.23,156.68 406.39,155.29 403.85,154.89 395.02,153.5 
			393.6,139.43 387.99,152.4 378.83,150.96 376.61,150.61 367.46,149.18 366.04,135.1 360.42,148.07 351.6,146.69 349.06,146.29 
			340.22,144.9 338.8,130.82 333.19,143.8 324.37,142.41 321.83,142.01 312.99,140.63 311.25,126.5 305.96,139.52 294.58,137.73 
			302.5,147.54 296.88,160.53 307.38,153.61 315.29,163.42 313.87,149.33 322.92,143.38 329.73,151.82 324.12,164.81 334.61,157.89 
			342.53,167.7 341.11,153.61 350.15,147.66 356.96,156.1 351.35,169.08 361.84,162.17 369.76,171.97 368.34,157.88 377.57,151.8 
			384.52,160.42 378.9,173.41 389.41,166.49 397.31,176.3 395.89,162.21 404.94,156.26 411.75,164.7 406.14,177.69 416.64,170.77 
			424.55,180.58 423.13,166.48 		"/>
		<polygon class="st14" points="420.84,143.7 422.26,157.78 433.62,159.56 423.13,166.48 424.55,180.58 416.64,170.77 
			406.14,177.69 411.75,164.7 403.85,154.89 415.23,156.68 		"/>
		<polygon class="st14" points="393.6,139.43 395.02,153.5 406.39,155.29 395.89,162.21 397.31,176.3 389.41,166.49 378.9,173.41 
			384.52,160.42 376.61,150.61 387.99,152.4 		"/>
		<polygon class="st14" points="311.25,126.5 312.99,140.63 324.37,142.41 313.87,149.33 315.29,163.42 307.38,153.61 
			296.88,160.53 302.5,147.54 294.58,137.73 305.96,139.52 		"/>
		<polygon class="st14" points="338.8,130.82 340.22,144.9 351.6,146.69 341.11,153.61 342.53,167.7 334.61,157.89 324.12,164.81 
			329.73,151.82 321.83,142.01 333.19,143.8 		"/>
		<polygon class="st14" points="366.04,135.1 367.46,149.18 378.83,150.96 368.34,157.88 369.76,171.97 361.84,162.17 
			351.35,169.08 356.96,156.1 349.06,146.29 360.42,148.07 		"/>
		<polygon class="st15" points="401.87,190.76 310.94,176.4 318.68,128.02 409.62,142.39 		"/>
		<text transform="matrix(0.7309 0.1159 -0.1539 0.9881 324.3598 161.1579)" class="st16 st17">5</text>
		<text transform="matrix(0.7309 0.1159 -0.1539 0.9881 345.605 164.527)" class="st16 st17">-</text>
		<text transform="matrix(0.7309 0.1159 -0.1539 0.9881 356.204 166.2079)" class="st16 st17">5s</text>
		<polygon class="st15" points="322.02,126.99 412.06,141.13 405.12,185.93 315.08,171.79 		"/>
		<text transform="matrix(0.7335 0.0988 -0.1415 0.9899 327.4966 159.861)" class="st18 st16 st19">5</text>
		<text transform="matrix(0.7335 0.0988 -0.1415 0.9899 327.4966 159.861)" class="st20 st16 st19">5</text>
		<text transform="matrix(0.7335 0.0988 -0.1415 0.9899 348.8188 162.7319)" class="st18 st16 st19">-</text>
		<text transform="matrix(0.7335 0.0988 -0.1415 0.9899 348.8188 162.7319)" class="st20 st16 st19">-</text>
		<text transform="matrix(0.7335 0.0988 -0.1415 0.9899 359.4543 164.164)" class="st18 st16 st19">5s</text>
		<text transform="matrix(0.7335 0.0988 -0.1415 0.9899 359.4543 164.164)" class="st20 st16 st19">5s</text>
	</g>
</g>
</svg>
